<?xml version="1.0" encoding="UTF-8"?>
<!DOCTYPE svg PUBLIC "-//W3C//DTD SVG 1.1//EN" "http://www.w3.org/Graphics/SVG/1.1/DTD/svg11.dtd">
<svg xmlns="http://www.w3.org/2000/svg" version="1.1" width="720px" height="720px" style="shape-rendering:geometricPrecision; text-rendering:geometricPrecision; image-rendering:optimizeQuality; fill-rule:evenodd; clip-rule:evenodd" xmlns:xlink="http://www.w3.org/1999/xlink">
<g><path style="opacity:0.997" fill="#1d1a1a" d="M 405.5,-0.5 C 408.833,-0.5 412.167,-0.5 415.5,-0.5C 437.494,4.90275 459.494,10.5694 481.5,16.5C 481.5,17.1667 481.833,17.5 482.5,17.5C 482.5,18.1667 482.833,18.5 483.5,18.5C 483.5,19.1667 483.833,19.5 484.5,19.5C 484.328,20.4916 484.662,21.1583 485.5,21.5C 486.014,46.5672 487.181,71.5672 489,96.5C 489.49,95.2068 489.657,93.8734 489.5,92.5C 490.266,94.6843 490.933,97.0177 491.5,99.5C 490.718,101.329 491.384,102.829 493.5,104C 499.5,107.333 505.5,110.667 511.5,114C 512.833,114.167 514.167,114.333 515.5,114.5C 520.463,113.522 525.13,111.689 529.5,109C 547.5,99 565.5,89 583.5,79C 589.649,77.2461 594.315,79.0794 597.5,84.5C 598.833,85.8333 600.167,87.1667 601.5,88.5C 601.5,89.1667 601.833,89.5 602.5,89.5C 602.5,90.1667 602.833,90.5 603.5,90.5C 603.5,91.1667 603.833,91.5 604.5,91.5C 604.5,92.1667 604.833,92.5 605.5,92.5C 605.5,93.1667 605.833,93.5 606.5,93.5C 606.5,94.1667 606.833,94.5 607.5,94.5C 607.5,95.1667 607.833,95.5 608.5,95.5C 608.5,96.1667 608.833,96.5 609.5,96.5C 609.5,97.1667 609.833,97.5 610.5,97.5C 610.5,98.1667 610.833,98.5 611.5,98.5C 611.5,99.1667 611.833,99.5 612.5,99.5C 612.5,100.167 612.833,100.5 613.5,100.5C 623.136,111.317 633.303,120.984 644,129.5C 644.013,132.686 644.18,136.02 644.5,139.5C 643.167,140.167 643.167,140.833 644.5,141.5C 640.251,150.339 635.251,158.672 629.5,166.5C 629.167,165.167 628.833,165.167 628.5,166.5C 627.167,167.167 627.167,167.833 628.5,168.5C 628.573,170.027 627.906,171.027 626.5,171.5C 626.167,170.167 625.833,170.167 625.5,171.5C 624.167,172.167 624.167,172.833 625.5,173.5C 622,180.506 618,187.173 613.5,193.5C 613.167,192.167 612.833,192.167 612.5,193.5C 611.167,194.167 611.167,194.833 612.5,195.5C 611.872,198.09 610.705,200.423 609,202.5C 607.909,207.525 608.743,212.191 611.5,216.5C 611.167,217.167 610.833,217.833 610.5,218.5C 612.425,218.837 613.925,220.17 615,222.5C 616.167,224.833 617.333,227.167 618.5,229.5C 618.291,230.086 617.957,230.586 617.5,231C 618.789,232.802 620.456,233.969 622.5,234.5C 634.933,236.553 647.6,237.553 660.5,237.5C 673.342,238.726 686.342,239.893 699.5,241C 701.624,242.122 703.457,243.622 705,245.5C 705.333,245.167 705.667,244.833 706,244.5C 705.338,247.685 705.838,250.685 707.5,253.5C 707.754,258.444 708.754,263.111 710.5,267.5C 710.547,270.568 711.047,273.568 712,276.5C 712.333,275.167 712.667,273.833 713,272.5C 712.341,278.572 713.008,284.572 715,290.5C 715.333,289.167 715.667,287.833 716,286.5C 716.953,289.432 717.453,292.432 717.5,295.5C 716.167,297.167 716.167,298.833 717.5,300.5C 717.232,302.099 717.566,303.432 718.5,304.5C 718.216,306.415 718.549,308.081 719.5,309.5C 719.5,312.833 719.5,316.167 719.5,319.5C 718.167,319.833 718.167,320.167 719.5,320.5C 719.5,321.167 719.5,321.833 719.5,322.5C 719.167,322.5 718.833,322.5 718.5,322.5C 718.167,321.167 717.833,321.167 717.5,322.5C 716.833,322.5 716.5,322.833 716.5,323.5C 715.508,323.328 714.842,323.662 714.5,324.5C 712.181,324.992 710.181,325.992 708.5,327.5C 707.833,327.5 707.5,327.833 707.5,328.5C 706.508,328.328 705.842,328.662 705.5,329.5C 704.209,329.263 703.209,329.596 702.5,330.5C 701.833,330.5 701.5,330.833 701.5,331.5C 700.508,331.328 699.842,331.662 699.5,332.5C 697.62,332.229 696.287,332.896 695.5,334.5C 694.508,334.328 693.842,334.662 693.5,335.5C 692.508,335.328 691.842,335.662 691.5,336.5C 690.508,336.328 689.842,336.662 689.5,337.5C 688.508,337.328 687.842,337.662 687.5,338.5C 686.508,338.328 685.842,338.662 685.5,339.5C 684.508,339.328 683.842,339.662 683.5,340.5C 682.508,340.328 681.842,340.662 681.5,341.5C 680.508,341.328 679.842,341.662 679.5,342.5C 678.508,342.328 677.842,342.662 677.5,343.5C 676.508,343.328 675.842,343.662 675.5,344.5C 674.508,344.328 673.842,344.662 673.5,345.5C 672.508,345.328 671.842,345.662 671.5,346.5C 670.508,346.328 669.842,346.662 669.5,347.5C 668.508,347.328 667.842,347.662 667.5,348.5C 666.508,348.328 665.842,348.662 665.5,349.5C 664.508,349.328 663.842,349.662 663.5,350.5C 662.508,350.328 661.842,350.662 661.5,351.5C 660.508,351.328 659.842,351.662 659.5,352.5C 658.508,352.328 657.842,352.662 657.5,353.5C 656.508,353.328 655.842,353.662 655.5,354.5C 654.508,354.328 653.842,354.662 653.5,355.5C 652.508,355.328 651.842,355.662 651.5,356.5C 650.833,356.5 650.5,356.833 650.5,357.5C 649.833,357.5 649.5,357.833 649.5,358.5C 648.167,358.833 648.167,359.167 649.5,359.5C 649.737,360.791 649.404,361.791 648.5,362.5C 648.167,359.833 647.833,359.833 647.5,362.5C 645.856,372.299 645.356,382.299 646,392.5C 646.333,387.167 646.667,381.833 647,376.5C 647.211,382.218 647.711,387.885 648.5,393.5C 648.291,394.086 647.957,394.586 647.5,395C 655.323,401.957 662.823,407.79 670,412.5C 670.718,411.549 671.551,411.383 672.5,412C 671.939,413.566 672.606,414.899 674.5,416C 679.38,419.72 684.38,423.22 689.5,426.5C 689.5,427.167 689.833,427.5 690.5,427.5C 697.12,433.035 703.953,437.701 711,441.5C 710.835,445.813 710.335,450.146 709.5,454.5C 708.167,455.5 708.167,456.5 709.5,457.5C 708.782,460.064 707.782,462.731 706.5,465.5C 706.167,462.833 705.833,462.833 705.5,465.5C 704.167,466.5 704.167,467.5 705.5,468.5C 705.737,469.791 705.404,470.791 704.5,471.5C 704.167,470.167 703.833,470.167 703.5,471.5C 702.167,472.167 702.167,472.833 703.5,473.5C 702.602,478.534 700.935,483.201 698.5,487.5C 698.167,484.833 697.833,484.833 697.5,487.5C 696.596,488.209 696.263,489.209 696.5,490.5C 695.596,491.209 695.263,492.209 695.5,493.5C 694.662,493.842 694.328,494.508 694.5,495.5C 693.596,496.209 693.263,497.209 693.5,498.5C 692.596,499.209 692.263,500.209 692.5,501.5C 691.167,502.167 691.167,502.833 692.5,503.5C 692.737,504.791 692.404,505.791 691.5,506.5C 691.167,503.833 690.833,503.833 690.5,506.5C 689.167,507.5 689.167,508.5 690.5,509.5C 690.539,512.089 689.539,514.089 687.5,515.5C 687.167,514.167 686.833,514.167 686.5,515.5C 685.833,515.5 685.5,515.833 685.5,516.5C 684.508,516.328 683.842,516.662 683.5,517.5C 682.508,517.328 681.842,517.662 681.5,518.5C 657.853,515.947 634.187,513.613 610.5,511.5C 609.167,510.167 607.833,510.167 606.5,511.5C 605.209,511.263 604.209,511.596 603.5,512.5C 602.508,512.328 601.842,512.662 601.5,513.5C 600.167,513.833 600.167,514.167 601.5,514.5C 600.214,517.117 598.547,519.45 596.5,521.5C 596.167,520.167 595.833,520.167 595.5,521.5C 594.167,521.833 594.167,522.167 595.5,522.5C 595.573,524.027 594.906,525.027 593.5,525.5C 593.167,524.167 592.833,524.167 592.5,525.5C 591.167,525.833 591.167,526.167 592.5,526.5C 590.938,530.392 588.605,533.725 585.5,536.5C 585.167,535.167 584.833,535.167 584.5,536.5C 583.167,536.833 583.167,537.167 584.5,537.5C 584.108,539.179 583.608,540.846 583,542.5C 582.333,541.167 581.667,541.167 581,542.5C 580.402,546.053 581.069,549.386 583,552.5C 583.667,549.833 584.333,549.833 585,552.5C 585.496,554.035 585.33,555.535 584.5,557C 584.862,558.225 585.362,559.391 586,560.5C 586.667,561.833 587.333,561.833 588,560.5C 588.852,564.191 589.518,567.858 590,571.5C 590.667,574.167 591.333,574.167 592,571.5C 593.694,573.57 593.861,575.736 592.5,578C 592.862,579.225 593.362,580.391 594,581.5C 594.667,578.833 595.333,578.833 596,581.5C 596.496,583.035 596.33,584.535 595.5,586C 595.862,587.225 596.362,588.391 597,589.5C 597.667,590.833 598.333,590.833 599,589.5C 600.398,591.814 600.565,594.147 599.5,596.5C 600.035,598.271 600.869,598.604 602,597.5C 602.852,601.191 603.518,604.858 604,608.5C 604.667,611.167 605.333,611.167 606,608.5C 607.694,610.57 607.861,612.736 606.5,615C 606.954,617.03 607.62,618.863 608.5,620.5C 608.771,622.38 608.104,623.713 606.5,624.5C 606.167,623.167 605.833,623.167 605.5,624.5C 604.833,624.5 604.5,624.833 604.5,625.5C 603.833,625.5 603.5,625.833 603.5,626.5C 602.833,626.5 602.5,626.833 602.5,627.5C 601.833,627.5 601.5,627.833 601.5,628.5C 600.508,628.328 599.842,628.662 599.5,629.5C 598.833,629.5 598.5,629.833 598.5,630.5C 597.833,630.5 597.5,630.833 597.5,631.5C 596.508,631.328 595.842,631.662 595.5,632.5C 594.833,632.5 594.5,632.833 594.5,633.5C 593.833,633.5 593.5,633.833 593.5,634.5C 592.508,634.328 591.842,634.662 591.5,635.5C 590.833,635.5 590.5,635.833 590.5,636.5C 589.833,636.5 589.5,636.833 589.5,637.5C 588.508,637.328 587.842,637.662 587.5,638.5C 586.833,638.5 586.5,638.833 586.5,639.5C 585.833,639.5 585.5,639.833 585.5,640.5C 584.508,640.328 583.842,640.662 583.5,641.5C 582.833,641.5 582.5,641.833 582.5,642.5C 581.833,642.5 581.5,642.833 581.5,643.5C 580.167,643.833 580.167,644.167 581.5,644.5C 581.027,645.906 580.027,646.573 578.5,646.5C 578.167,645.167 577.833,645.167 577.5,646.5C 576.833,646.5 576.5,646.833 576.5,647.5C 575.508,647.328 574.842,647.662 574.5,648.5C 573.833,648.5 573.5,648.833 573.5,649.5C 572.833,649.5 572.5,649.833 572.5,650.5C 571.508,650.328 570.842,650.662 570.5,651.5C 569.833,651.5 569.5,651.833 569.5,652.5C 568.833,652.5 568.5,652.833 568.5,653.5C 567.508,653.328 566.842,653.662 566.5,654.5C 565.833,654.5 565.5,654.833 565.5,655.5C 564.833,655.5 564.5,655.833 564.5,656.5C 563.508,656.328 562.842,656.662 562.5,657.5C 561.833,657.5 561.5,657.833 561.5,658.5C 560.833,658.5 560.5,658.833 560.5,659.5C 559.508,659.328 558.842,659.662 558.5,660.5C 557.833,660.5 557.5,660.833 557.5,661.5C 556.833,661.5 556.5,661.833 556.5,662.5C 555.167,662.833 555.167,663.167 556.5,663.5C 556.027,664.906 555.027,665.573 553.5,665.5C 553.167,664.167 552.833,664.167 552.5,665.5C 547.678,666.785 543.345,665.785 539.5,662.5C 539.5,661.833 539.167,661.5 538.5,661.5C 533.565,657.742 528.732,653.742 524,649.5C 523.282,650.451 522.449,650.617 521.5,650C 520.167,649.333 520.167,648.667 521.5,648C 520.667,647.167 519.833,646.333 519,645.5C 518.282,646.451 517.449,646.617 516.5,646C 516.791,644.042 515.791,642.542 513.5,641.5C 513.5,640.833 513.167,640.5 512.5,640.5C 504.065,633.909 495.732,627.076 487.5,620C 482.119,617.749 477.119,618.249 472.5,621.5C 471.209,621.263 470.209,621.596 469.5,622.5C 468.508,622.328 467.842,622.662 467.5,623.5C 466.209,623.263 465.209,623.596 464.5,624.5C 463.209,624.263 462.209,624.596 461.5,625.5C 460.508,625.328 459.842,625.662 459.5,626.5C 458.209,626.263 457.209,626.596 456.5,627.5C 455.209,627.263 454.209,627.596 453.5,628.5C 452.508,628.328 451.842,628.662 451.5,629.5C 450.209,629.263 449.209,629.596 448.5,630.5C 447.508,630.328 446.842,630.662 446.5,631.5C 445.508,631.328 444.842,631.662 444.5,632.5C 443.833,632.5 443.5,632.833 443.5,633.5C 442.833,633.5 442.5,633.833 442.5,634.5C 441.167,634.833 441.167,635.167 442.5,635.5C 442.073,638.01 441.407,640.343 440.5,642.5C 440.167,638.5 439.833,638.5 439.5,642.5C 438.566,643.568 438.232,644.901 438.5,646.5C 437.549,647.919 437.216,649.585 437.5,651.5C 436.549,652.919 436.216,654.585 436.5,656.5C 435.549,657.919 435.216,659.585 435.5,661.5C 434.566,662.568 434.232,663.901 434.5,665.5C 433.549,666.919 433.216,668.585 433.5,670.5C 432.167,672.167 432.167,673.833 433.5,675.5C 433.102,680.412 432.102,685.079 430.5,689.5C 430.167,684.167 429.833,684.167 429.5,689.5C 428.549,690.919 428.216,692.585 428.5,694.5C 427.549,695.919 427.216,697.585 427.5,699.5C 426.087,702.219 425.42,705.219 425.5,708.5C 424.167,709.167 424.167,709.833 425.5,710.5C 425.573,712.027 424.906,713.027 423.5,713.5C 423.167,712.167 422.833,712.167 422.5,713.5C 421.508,713.328 420.842,713.662 420.5,714.5C 419.833,714.5 419.5,714.833 419.5,715.5C 417.265,715.205 415.265,715.539 413.5,716.5C 410.615,716.194 407.948,716.527 405.5,717.5C 401.958,717.187 398.625,717.521 395.5,718.5C 391.298,718.183 387.298,718.517 383.5,719.5C 372.833,719.5 362.167,719.5 351.5,719.5C 351.158,718.662 350.492,718.328 349.5,718.5C 348.165,716.097 346.498,714.764 344.5,714.5C 344.931,713.707 345.265,712.873 345.5,712C 339.764,694.29 333.764,676.79 327.5,659.5C 327.737,658.209 327.404,657.209 326.5,656.5C 326.405,654.214 325.738,652.214 324.5,650.5C 324.587,647.402 324.087,647.068 323,649.5C 322.208,647.413 321.041,645.579 319.5,644C 320.167,643.667 320.833,643.333 321.5,643C 313.506,639.751 305.173,637.584 296.5,636.5C 293.781,635.087 290.781,634.42 287.5,634.5C 284.949,633.155 282.116,632.489 279,632.5C 276.456,632.336 274.29,633.003 272.5,634.5C 271.833,634.5 271.5,634.833 271.5,635.5C 270.833,635.5 270.5,635.833 270.5,636.5C 269.833,636.5 269.5,636.833 269.5,637.5C 268.833,637.5 268.5,637.833 268.5,638.5C 267.833,638.5 267.5,638.833 267.5,639.5C 266.833,639.5 266.5,639.833 266.5,640.5C 265.833,640.5 265.5,640.833 265.5,641.5C 264.833,641.5 264.5,641.833 264.5,642.5C 263.833,642.5 263.5,642.833 263.5,643.5C 262.833,643.5 262.5,643.833 262.5,644.5C 261.833,644.5 261.5,644.833 261.5,645.5C 260.833,645.5 260.5,645.833 260.5,646.5C 259.833,646.5 259.5,646.833 259.5,647.5C 258.833,647.5 258.5,647.833 258.5,648.5C 257.833,648.5 257.5,648.833 257.5,649.5C 256.833,649.5 256.5,649.833 256.5,650.5C 255.833,650.5 255.5,650.833 255.5,651.5C 254.833,651.5 254.5,651.833 254.5,652.5C 253.833,652.5 253.5,652.833 253.5,653.5C 252.833,653.5 252.5,653.833 252.5,654.5C 251.833,654.5 251.5,654.833 251.5,655.5C 250.833,655.5 250.5,655.833 250.5,656.5C 249.833,656.5 249.5,656.833 249.5,657.5C 248.833,657.5 248.5,657.833 248.5,658.5C 247.833,658.5 247.5,658.833 247.5,659.5C 246.833,659.5 246.5,659.833 246.5,660.5C 245.833,660.5 245.5,660.833 245.5,661.5C 244.833,661.5 244.5,661.833 244.5,662.5C 243.833,662.5 243.5,662.833 243.5,663.5C 242.833,663.5 242.5,663.833 242.5,664.5C 241.833,664.5 241.5,664.833 241.5,665.5C 240.833,665.5 240.5,665.833 240.5,666.5C 239.833,666.5 239.5,666.833 239.5,667.5C 238.833,667.5 238.5,667.833 238.5,668.5C 237.833,668.5 237.5,668.833 237.5,669.5C 236.833,669.5 236.5,669.833 236.5,670.5C 235.833,670.5 235.5,670.833 235.5,671.5C 234.833,671.5 234.5,671.833 234.5,672.5C 233.833,672.5 233.5,672.833 233.5,673.5C 232.833,673.5 232.5,673.833 232.5,674.5C 231.833,674.5 231.5,674.833 231.5,675.5C 230.833,675.5 230.5,675.833 230.5,676.5C 229.833,676.5 229.5,676.833 229.5,677.5C 228.833,677.5 228.5,677.833 228.5,678.5C 227.833,678.5 227.5,678.833 227.5,679.5C 226.833,679.5 226.5,679.833 226.5,680.5C 225.833,680.5 225.5,680.833 225.5,681.5C 224.833,681.5 224.5,681.833 224.5,682.5C 223.833,682.5 223.5,682.833 223.5,683.5C 222.833,683.5 222.5,683.833 222.5,684.5C 221.833,684.5 221.5,684.833 221.5,685.5C 220.833,685.5 220.5,685.833 220.5,686.5C 219.833,686.5 219.5,686.833 219.5,687.5C 218.209,687.263 217.209,687.596 216.5,688.5C 214.5,688.167 212.5,687.833 210.5,687.5C 201.323,681.409 191.657,676.076 181.5,671.5C 174.328,666.411 166.661,662.077 158.5,658.5C 157.833,657.167 156.833,656.167 155.5,655.5C 155.5,654.833 155.167,654.5 154.5,654.5C 154.167,653.167 153.833,653.167 153.5,654.5C 152.883,654.389 152.383,654.056 152,653.5C 154.622,641.765 158.789,624.931 164.5,603C 163.591,601.211 163.424,599.377 164,597.5C 164.333,598.5 164.667,599.5 165,600.5C 166.392,598.059 166.559,595.726 165.5,593.5C 165.457,589.107 165.957,588.774 167,592.5C 169.759,584.804 169.592,577.138 166.5,569.5C 166.709,568.914 167.043,568.414 167.5,568C 158.462,557.925 148.795,549.259 138.5,542C 139.167,541.667 139.833,541.333 140.5,541C 135.35,539.109 130.35,539.275 125.5,541.5C 123.901,541.232 122.568,541.566 121.5,542.5C 119.585,542.216 117.919,542.549 116.5,543.5C 114.901,543.232 113.568,543.566 112.5,544.5C 110.585,544.216 108.919,544.549 107.5,545.5C 105.901,545.232 104.568,545.566 103.5,546.5C 101.585,546.216 99.9187,546.549 98.5,547.5C 96.901,547.232 95.5676,547.566 94.5,548.5C 92.901,548.232 91.5676,548.566 90.5,549.5C 88.5853,549.216 86.9187,549.549 85.5,550.5C 83.901,550.232 82.5676,550.566 81.5,551.5C 79.5853,551.216 77.9187,551.549 76.5,552.5C 74.901,552.232 73.5676,552.566 72.5,553.5C 70.5853,553.216 68.9187,553.549 67.5,554.5C 62.4994,554.792 57.9994,554.125 54,552.5C 50.2451,545.991 46.7451,539.324 43.5,532.5C 43.8333,531.833 44.1667,531.167 44.5,530.5C 43.1089,527.571 41.2756,525.571 39,524.5C 38.5172,523.552 38.3505,522.552 38.5,521.5C 39.8333,521.167 39.8333,520.833 38.5,520.5C 38.5,520.167 38.5,519.833 38.5,519.5C 38.5,518.833 38.1667,518.5 37.5,518.5C 37.5,518.167 37.5,517.833 37.5,517.5C 37.5,516.833 37.1667,516.5 36.5,516.5C 36.5,516.167 36.5,515.833 36.5,515.5C 36.5,514.833 36.1667,514.5 35.5,514.5C 35.5,514.167 35.5,513.833 35.5,513.5C 35.5,512.833 35.1667,512.5 34.5,512.5C 34.5,512.167 34.5,511.833 34.5,511.5C 34.5,510.833 34.1667,510.5 33.5,510.5C 33.5,510.167 33.5,509.833 33.5,509.5C 33.5,508.833 33.1667,508.5 32.5,508.5C 32.5,508.167 32.5,507.833 32.5,507.5C 32.5,506.833 32.1667,506.5 31.5,506.5C 31.5,506.167 31.5,505.833 31.5,505.5C 31.5,504.833 31.1667,504.5 30.5,504.5C 30.5,504.167 30.5,503.833 30.5,503.5C 30.5,502.833 30.1667,502.5 29.5,502.5C 29.5,502.167 29.5,501.833 29.5,501.5C 29.5,500.833 29.1667,500.5 28.5,500.5C 27.2211,497.605 26.2211,494.605 25.5,491.5C 26.4187,489.097 26.5854,486.764 26,484.5C 27.1667,483.333 28.3333,482.167 29.5,481C 30.4491,480.383 31.2825,480.549 32,481.5C 37.2184,476.995 41.3851,472.162 44.5,467C 45.4491,466.383 46.2825,466.549 47,467.5C 52.2184,462.995 56.3851,458.162 59.5,453C 60.4491,452.383 61.2825,452.549 62,453.5C 67.2184,448.995 71.3851,444.162 74.5,439C 76.9849,439.623 78.9849,438.623 80.5,436C 79.4652,434.493 79.6319,432.993 81,431.5C 81.3333,432.167 81.6667,432.833 82,433.5C 82.9581,431.801 83.4581,429.967 83.5,428C 81.4621,416.144 79.2954,404.311 77,392.5C 76.1632,398.837 75.4966,398.503 75,391.5C 74.2155,389.714 73.0488,388.214 71.5,387C 71.8333,386.667 72.1667,386.333 72.5,386C 58.7675,380.144 44.7675,374.978 30.5,370.5C 20.7167,366.459 10.7167,362.792 0.5,359.5C 0.5,358.833 0.166667,358.5 -0.5,358.5C -0.5,350.833 -0.5,343.167 -0.5,335.5C 1.5966,317.658 4.0966,299.992 7,282.5C 7.33333,282.833 7.66667,283.167 8,283.5C 10.5429,281.646 13.3763,280.479 16.5,280C 39.8833,275.881 63.2166,271.547 86.5,267C 88.5519,263.716 90.3852,259.883 92,255.5C 92.9836,257.795 93.8169,257.461 94.5,254.5C 93.2385,252.425 93.4052,250.425 95,248.5C 95.9836,250.795 96.8169,250.461 97.5,247.5C 96.5721,246.232 96.4054,244.899 97,243.5C 97.9836,245.795 98.8169,245.461 99.5,242.5C 99.0688,241.707 98.7355,240.873 98.5,240C 102.406,233.752 102.406,227.586 98.5,221.5C 99.8549,220.325 99.6883,219.325 98,218.5C 96.8687,219.604 96.0354,219.271 95.5,217.5C 95.7093,216.914 96.0426,216.414 96.5,216C 94.8619,215.758 93.3619,214.925 92,213.5C 91.028,211.695 89.8613,210.028 88.5,208.5C 88.7093,207.914 89.0426,207.414 89.5,207C 88.4479,205.881 87.2812,205.381 86,205.5C 85.3828,204.551 85.5494,203.718 86.5,203C 85.4479,201.881 84.2812,201.381 83,201.5C 83.6171,199.905 83.2837,198.572 82,197.5C 80.8687,198.604 80.0354,198.271 79.5,196.5C 79.7093,195.914 80.0426,195.414 80.5,195C 78.9255,194.664 77.5922,193.831 76.5,192.5C 76.7093,191.914 77.0426,191.414 77.5,191C 76.4479,189.881 75.2812,189.381 74,189.5C 73.3828,188.551 73.5494,187.718 74.5,187C 72.8619,186.758 71.3619,185.925 70,184.5C 68,181.833 66,179.167 64,176.5C 63.3828,175.551 63.5494,174.718 64.5,174C 63.4479,172.881 62.2812,172.381 61,172.5C 60.3828,171.551 60.5494,170.718 61.5,170C 60.4479,168.881 59.2812,168.381 58,168.5C 58.6667,164.5 58.6667,160.5 58,156.5C 58.6667,155.167 59.3333,155.167 60,156.5C 61.2837,155.428 61.6171,154.095 61,152.5C 62.7566,152.867 64.2566,152.034 65.5,150C 64.5494,149.282 64.3828,148.449 65,147.5C 66.3619,146.075 67.8619,145.242 69.5,145C 68.5494,144.282 68.3828,143.449 69,142.5C 70.3619,141.075 71.8619,140.242 73.5,140C 72.5494,139.282 72.3828,138.449 73,137.5C 74.9823,136.906 76.8156,135.74 78.5,134C 77.5494,133.282 77.3828,132.449 78,131.5C 79.7566,131.867 81.2566,131.034 82.5,129C 81.5494,128.282 81.3828,127.449 82,126.5C 83.7566,126.867 85.2566,126.034 86.5,124C 85.5494,123.282 85.3828,122.449 86,121.5C 87.7566,121.867 89.2566,121.034 90.5,119C 89.5494,118.282 89.3828,117.449 90,116.5C 91.7566,116.867 93.2566,116.034 94.5,114C 93.5494,113.282 93.3828,112.449 94,111.5C 95.3619,110.075 96.8619,109.242 98.5,109C 97.3322,107.129 97.8322,105.629 100,104.5C 100.333,104.833 100.667,105.167 101,105.5C 103.763,103.03 106.93,102.196 110.5,103C 119.521,106.513 128.521,110.013 137.5,113.5C 141.203,115.679 145.203,117.345 149.5,118.5C 159.871,123.345 170.538,127.679 181.5,131.5C 183.577,131.308 185.577,130.808 187.5,130C 194.833,125 202.167,120 209.5,115C 208.833,114.667 208.167,114.333 207.5,114C 209.487,112.681 210.654,110.848 211,108.5C 211.667,109.833 212.333,109.833 213,108.5C 212.431,94.003 211.264,79.6696 209.5,65.5C 209.818,60.9677 209.485,56.6344 208.5,52.5C 208.817,48.2984 208.483,44.2984 207.5,40.5C 207.751,36.681 207.918,33.0143 208,29.5C 231.551,20.5899 255.717,12.2565 280.5,4.5C 284.544,5.94582 288.044,7.61249 291,9.5C 303.107,27.0889 315.774,45.4222 329,64.5C 328.561,67.6061 330.061,69.6061 333.5,70.5C 334.777,71.8976 336.443,72.5643 338.5,72.5C 346.813,71.7584 355.147,71.2584 363.5,71C 365.956,66.601 368.456,61.7677 371,56.5C 372,56.1667 373,55.8333 374,55.5C 374.498,50.1311 376.498,45.1311 380,40.5C 380.667,41.8333 381.333,41.8333 382,40.5C 382.158,35.8073 383.825,31.474 387,27.5C 387.667,28.8333 388.333,28.8333 389,27.5C 389.064,23.3042 390.398,19.3042 393,15.5C 394,15.1667 395,14.8333 396,14.5C 396.251,9.30458 398.251,4.63792 402,0.5C 403.579,1.79965 404.745,1.46632 405.5,-0.5 Z M 382.5,150.5 C 378.486,150.334 374.486,150.501 370.5,151C 393.918,152.45 416.585,157.283 438.5,165.5C 438.842,166.338 439.508,166.672 440.5,166.5C 443.408,167.954 446.408,169.454 449.5,171C 450.749,171.74 451.749,171.573 452.5,170.5C 454.027,170.427 455.027,171.094 455.5,172.5C 454.262,172.81 454.262,173.31 455.5,174C 469.045,180.931 481.712,189.098 493.5,198.5C 493.973,199.906 494.973,200.573 496.5,200.5C 498.167,202.833 500.167,204.833 502.5,206.5C 505.5,210.167 508.833,213.5 512.5,216.5C 514.167,218.833 516.167,220.833 518.5,222.5C 518.427,224.027 519.094,225.027 520.5,225.5C 520.833,226.5 521.5,227.167 522.5,227.5C 522.427,229.027 523.094,230.027 524.5,230.5C 524.833,231.5 525.5,232.167 526.5,232.5C 526.427,234.027 527.094,235.027 528.5,235.5C 528.427,237.027 529.094,238.027 530.5,238.5C 530.5,239.167 530.833,239.5 531.5,239.5C 531.427,241.027 532.094,242.027 533.5,242.5C 533.75,244.674 534.75,246.341 536.5,247.5C 536.427,249.027 537.094,250.027 538.5,250.5C 539.079,253.331 540.412,255.664 542.5,257.5C 545.597,264.691 548.93,271.691 552.5,278.5C 552.402,280.553 553.069,282.22 554.5,283.5C 554.782,284.778 555.449,285.778 556.5,286.5C 555.516,288.598 555.849,290.598 557.5,292.5C 557.595,294.786 558.262,296.786 559.5,298.5C 563.076,311.954 565.576,325.62 567,339.5C 567.497,336.854 567.664,334.187 567.5,331.5C 569.032,340.448 569.698,349.615 569.5,359C 569.5,365.675 569.166,372.175 568.5,378.5C 568.333,327.838 567.833,327.838 567,378.5C 565.576,392.38 563.076,406.046 559.5,419.5C 558.566,420.568 558.232,421.901 558.5,423.5C 557.596,424.209 557.263,425.209 557.5,426.5C 556.596,427.209 556.263,428.209 556.5,429.5C 555.662,429.842 555.328,430.508 555.5,431.5C 554.596,432.209 554.263,433.209 554.5,434.5C 553.069,435.78 552.402,437.447 552.5,439.5C 551.069,440.78 550.402,442.447 550.5,444.5C 547.326,449.516 544.659,454.849 542.5,460.5C 540.412,462.336 539.079,464.669 538.5,467.5C 537.094,467.973 536.427,468.973 536.5,470.5C 534.75,471.659 533.75,473.326 533.5,475.5C 532.094,475.973 531.427,476.973 531.5,478.5C 530.833,478.5 530.5,478.833 530.5,479.5C 529.094,479.973 528.427,480.973 528.5,482.5C 527.094,482.973 526.427,483.973 526.5,485.5C 525.5,485.833 524.833,486.5 524.5,487.5C 523.094,487.973 522.427,488.973 522.5,490.5C 521.5,490.833 520.833,491.5 520.5,492.5C 519.094,492.973 518.427,493.973 518.5,495.5C 516.167,497.167 514.167,499.167 512.5,501.5C 508.833,504.5 505.5,507.833 502.5,511.5C 500.167,513.167 498.167,515.167 496.5,517.5C 494.973,517.427 493.973,518.094 493.5,519.5C 466.794,541.148 436.461,555.648 402.5,563C 403.793,563.49 405.127,563.657 406.5,563.5C 403.456,565.011 400.122,565.678 396.5,565.5C 395.726,564.853 394.726,564.52 393.5,564.5C 384.552,565.872 375.552,566.705 366.5,567C 371.823,567.499 377.156,567.666 382.5,567.5C 367.5,570.167 352.5,570.167 337.5,567.5C 342.511,567.666 347.511,567.499 352.5,567C 330.32,566.331 308.82,562.164 288,554.5C 287.235,554.57 286.735,554.903 286.5,555.5C 284.447,555.598 282.78,554.931 281.5,553.5C 282.239,553.631 282.906,553.464 283.5,553C 277.593,550.211 271.593,547.711 265.5,545.5C 265.158,544.662 264.492,544.328 263.5,544.5C 263.167,543.167 262.833,543.167 262.5,544.5C 261.508,544.672 260.842,544.338 260.5,543.5C 261.738,543.19 261.738,542.69 260.5,542C 254.779,538.809 249.112,535.642 243.5,532.5C 243.027,531.094 242.027,530.427 240.5,530.5C 239.564,529.026 238.23,528.026 236.5,527.5C 236.027,526.094 235.027,525.427 233.5,525.5C 231.909,523.367 229.909,521.701 227.5,520.5C 227.027,519.094 226.027,518.427 224.5,518.5C 223.167,516.5 221.5,514.833 219.5,513.5C 217.431,510.427 214.764,508.094 211.5,506.5C 210.243,503.573 208.243,501.239 205.5,499.5C 204.5,497.833 203.167,496.5 201.5,495.5C 201.262,493.596 200.262,492.262 198.5,491.5C 198.5,490.833 198.167,490.5 197.5,490.5C 197.262,488.596 196.262,487.262 194.5,486.5C 194.5,485.833 194.167,485.5 193.5,485.5C 193.573,483.973 192.906,482.973 191.5,482.5C 191.262,480.596 190.262,479.262 188.5,478.5C 188.573,476.973 187.906,475.973 186.5,475.5C 186.573,473.973 185.906,472.973 184.5,472.5C 184.25,470.326 183.25,468.659 181.5,467.5C 181.573,465.973 180.906,464.973 179.5,464.5C 179.672,463.508 179.338,462.842 178.5,462.5C 178.672,461.508 178.338,460.842 177.5,460.5C 174.403,453.309 171.07,446.309 167.5,439.5C 167.672,438.508 167.338,437.842 166.5,437.5C 166.737,436.209 166.404,435.209 165.5,434.5C 165.672,433.508 165.338,432.842 164.5,432.5C 164.737,431.209 164.404,430.209 163.5,429.5C 163.737,428.209 163.404,427.209 162.5,426.5C 162.405,424.214 161.738,422.214 160.5,420.5C 160.768,418.901 160.434,417.568 159.5,416.5C 159.59,413.848 158.924,411.515 157.5,409.5C 157.784,407.585 157.451,405.919 156.5,404.5C 155.101,395.876 153.935,387.21 153,378.5C 152.502,381.482 152.335,384.482 152.5,387.5C 151.085,378.138 150.085,368.638 149.5,359C 150.085,349.362 151.085,339.862 152.5,330.5C 152.335,333.518 152.502,336.518 153,339.5C 153.802,330.053 155.302,320.72 157.5,311.5C 157.457,310.584 157.124,309.917 156.5,309.5C 156.232,307.901 156.566,306.568 157.5,305.5C 157.693,309.449 158.193,309.449 159,305.5C 159.422,303.645 159.922,301.811 160.5,300C 160.43,299.235 160.097,298.735 159.5,298.5C 159.232,296.901 159.566,295.568 160.5,294.5C 160.351,295.552 160.517,296.552 161,297.5C 162.145,294.568 162.978,291.568 163.5,288.5C 164.404,287.791 164.737,286.791 164.5,285.5C 165.338,285.158 165.672,284.492 165.5,283.5C 166.404,282.791 166.737,281.791 166.5,280.5C 167.338,280.158 167.672,279.492 167.5,278.5C 168.404,277.791 168.737,276.791 168.5,275.5C 172.341,269.151 175.675,262.484 178.5,255.5C 180.25,254.341 181.25,252.674 181.5,250.5C 182.338,250.158 182.672,249.492 182.5,248.5C 183.906,248.027 184.573,247.027 184.5,245.5C 185.906,245.027 186.573,244.027 186.5,242.5C 187.906,242.027 188.573,241.027 188.5,239.5C 190.262,238.738 191.262,237.404 191.5,235.5C 192.906,235.027 193.573,234.027 193.5,232.5C 194.167,232.5 194.5,232.167 194.5,231.5C 196.262,230.738 197.262,229.404 197.5,227.5C 198.167,227.5 198.5,227.167 198.5,226.5C 200.262,225.738 201.262,224.404 201.5,222.5C 203.167,221.5 204.5,220.167 205.5,218.5C 208.573,216.431 210.906,213.764 212.5,210.5C 215.427,209.243 217.761,207.243 219.5,204.5C 221.5,203.167 223.167,201.5 224.5,199.5C 226.027,199.573 227.027,198.906 227.5,197.5C 229.909,196.299 231.909,194.633 233.5,192.5C 235.027,192.573 236.027,191.906 236.5,190.5C 238.23,189.974 239.564,188.974 240.5,187.5C 242.027,187.573 243.027,186.906 243.5,185.5C 249.779,182.024 256.112,178.524 262.5,175C 263.738,174.31 263.738,173.81 262.5,173.5C 262.842,172.662 263.508,172.328 264.5,172.5C 264.435,172.938 264.601,173.272 265,173.5C 266.419,172.54 267.919,171.707 269.5,171C 268.906,170.536 268.239,170.369 267.5,170.5C 268.209,169.596 269.209,169.263 270.5,169.5C 270.56,170.043 270.893,170.376 271.5,170.5C 275.381,168.393 279.381,166.559 283.5,165C 282.906,164.536 282.239,164.369 281.5,164.5C 282.78,163.069 284.447,162.402 286.5,162.5C 286.735,163.097 287.235,163.43 288,163.5C 298.13,159.931 308.297,156.931 318.5,154.5C 320.415,154.784 322.081,154.451 323.5,153.5C 332.143,152.503 340.81,151.67 349.5,151C 345.514,150.501 341.514,150.334 337.5,150.5C 352.5,147.833 367.5,147.833 382.5,150.5 Z M 323.5,152.5 C 323.5,152.833 323.5,153.167 323.5,153.5C 321.585,153.216 319.919,153.549 318.5,154.5C 316.833,154.5 315.167,154.5 313.5,154.5C 316.544,152.989 319.878,152.322 323.5,152.5 Z M 438.5,165.5 C 438.5,165.167 438.5,164.833 438.5,164.5C 440.553,164.402 442.22,165.069 443.5,166.5C 442.5,166.5 441.5,166.5 440.5,166.5C 440.158,165.662 439.492,165.328 438.5,165.5 Z"/></g>
<g><path style="opacity:0.007" fill="#000000" d="M 481.5,16.5 C 483.725,15.6679 485.058,16.6679 485.5,19.5C 485.167,19.5 484.833,19.5 484.5,19.5C 483.833,19.5 483.5,19.1667 483.5,18.5C 482.833,18.5 482.5,18.1667 482.5,17.5C 481.833,17.5 481.5,17.1667 481.5,16.5 Z"/></g>
<g><path style="opacity:0.012" fill="#000000" d="M 485.5,19.5 C 486.338,19.8417 486.672,20.5084 486.5,21.5C 486.167,21.5 485.833,21.5 485.5,21.5C 485.5,20.8333 485.5,20.1667 485.5,19.5 Z"/></g>
<g><path style="opacity:0.009" fill="#170300" d="M 486.5,21.5 C 487.651,26.6503 487.817,31.9836 487,37.5C 486.501,32.1771 486.334,26.8437 486.5,21.5 Z"/></g>
<g><path style="opacity:0.011" fill="#000000" d="M 487.5,38.5 C 488.657,46.6563 488.823,54.9896 488,63.5C 487.5,55.1733 487.334,46.84 487.5,38.5 Z"/></g>
<g><path style="opacity:0.01" fill="#080100" d="M 207.5,40.5 C 207.5,44.5 207.5,48.5 207.5,52.5C 206.167,48.5 206.167,44.5 207.5,40.5 Z"/></g>
<g><path style="opacity:0.008" fill="#070100" d="M 207.5,52.5 C 207.833,52.5 208.167,52.5 208.5,52.5C 208.5,56.8333 208.5,61.1667 208.5,65.5C 207.515,61.3656 207.182,57.0323 207.5,52.5 Z"/></g>
<g><path style="opacity:0.01" fill="#000000" d="M 489.5,92.5 C 488.342,83.3425 488.176,74.0092 489,64.5C 489.5,73.8274 489.666,83.1607 489.5,92.5 Z"/></g>
<g><path style="opacity:0.01" fill="#000000" d="M 208.5,65.5 C 208.833,65.5 209.167,65.5 209.5,65.5C 209.167,82.8333 208.833,82.8333 208.5,65.5 Z"/></g>
<g><path style="opacity:0.012" fill="#000000" d="M 333.5,70.5 C 333.897,69.475 334.563,69.3083 335.5,70C 334.906,70.4643 334.239,70.631 333.5,70.5 Z"/></g>
<g><path style="opacity:0.007" fill="#000000" d="M 336.5,71.5 C 337.601,70.4017 338.934,70.235 340.5,71C 339.207,71.49 337.873,71.6567 336.5,71.5 Z"/></g>
<g><path style="opacity:0.011" fill="#000000" d="M 209.5,79.5 C 210.643,82.9758 210.81,86.6425 210,90.5C 209.501,86.8484 209.335,83.1817 209.5,79.5 Z"/></g>
<g><path style="opacity:0.008" fill="#000000" d="M 612.5,98.5 C 612.167,98.5 611.833,98.5 611.5,98.5C 610.833,98.5 610.5,98.1667 610.5,97.5C 609.833,97.5 609.5,97.1667 609.5,96.5C 608.833,96.5 608.5,96.1667 608.5,95.5C 607.833,95.5 607.5,95.1667 607.5,94.5C 606.833,94.5 606.5,94.1667 606.5,93.5C 605.833,93.5 605.5,93.1667 605.5,92.5C 604.833,92.5 604.5,92.1667 604.5,91.5C 603.833,91.5 603.5,91.1667 603.5,90.5C 602.833,90.5 602.5,90.1667 602.5,89.5C 601.833,89.5 601.5,89.1667 601.5,88.5C 600.167,87.1667 598.833,85.8333 597.5,84.5C 598.117,84.3893 598.617,84.056 599,83.5C 604.1,88.0924 608.6,93.0924 612.5,98.5 Z"/></g>
<g><path style="opacity:0.008" fill="#070100" d="M 210.5,91.5 C 211.647,95.6463 211.814,99.9796 211,104.5C 210.501,100.179 210.334,95.8461 210.5,91.5 Z"/></g>
<g><path style="opacity:0.012" fill="#000000" d="M 612.5,99.5 C 612.5,99.1667 612.5,98.8333 612.5,98.5C 614.424,98.7107 614.757,99.3774 613.5,100.5C 612.833,100.5 612.5,100.167 612.5,99.5 Z"/></g>
<g><path style="opacity:0.012" fill="#000000" d="M 137.5,113.5 C 137.897,112.475 138.563,112.308 139.5,113C 138.906,113.464 138.239,113.631 137.5,113.5 Z"/></g>
<g><path style="opacity:0.008" fill="#000000" d="M 140.5,114.5 C 140.897,113.475 141.563,113.308 142.5,114C 141.906,114.464 141.239,114.631 140.5,114.5 Z"/></g>
<g><path style="opacity:0.012" fill="#000000" d="M 149.5,118.5 C 149.897,117.475 150.563,117.308 151.5,118C 150.906,118.464 150.239,118.631 149.5,118.5 Z"/></g>
<g><path style="opacity:0.01" fill="#000000" d="M 152.5,119.5 C 152.897,118.475 153.563,118.308 154.5,119C 153.906,119.464 153.239,119.631 152.5,119.5 Z"/></g>
<g><path style="opacity:0.011" fill="#000000" d="M 645.5,139.5 C 645.338,137.473 645.505,135.473 646,133.5C 646.789,135.712 646.622,137.712 645.5,139.5 Z"/></g>
<g><path style="opacity:0.01" fill="#000000" d="M 644.5,139.5 C 644.833,139.5 645.167,139.5 645.5,139.5C 645.672,140.492 645.338,141.158 644.5,141.5C 644.5,140.833 644.5,140.167 644.5,139.5 Z"/></g>
<g><path style="opacity:0.01" fill="#000000" d="M 628.5,166.5 C 628.833,166.5 629.167,166.5 629.5,166.5C 629.672,167.492 629.338,168.158 628.5,168.5C 628.5,167.833 628.5,167.167 628.5,166.5 Z"/></g>
<g><path style="opacity:0.01" fill="#000000" d="M 625.5,171.5 C 625.833,171.5 626.167,171.5 626.5,171.5C 626.672,172.492 626.338,173.158 625.5,173.5C 625.5,172.833 625.5,172.167 625.5,171.5 Z"/></g>
<g><path style="opacity:0.009" fill="#000000" d="M 234.5,190.5 C 235.167,190.5 235.833,190.5 236.5,190.5C 236.027,191.906 235.027,192.573 233.5,192.5C 233.5,192.167 233.5,191.833 233.5,191.5C 234.167,191.5 234.5,191.167 234.5,190.5 Z"/></g>
<g><path style="opacity:0.01" fill="#000000" d="M 612.5,193.5 C 612.833,193.5 613.167,193.5 613.5,193.5C 613.672,194.492 613.338,195.158 612.5,195.5C 612.5,194.833 612.5,194.167 612.5,193.5 Z"/></g>
<g><path style="opacity:0.007" fill="#000000" d="M 622.5,234.5 C 625.167,233.167 627.833,233.167 630.5,234.5C 627.833,234.5 625.167,234.5 622.5,234.5 Z"/></g>
<g><path style="opacity:0.01" fill="#000000" d="M 630.5,234.5 C 635.179,234.334 639.845,234.501 644.5,235C 639.648,235.815 634.981,235.648 630.5,234.5 Z"/></g>
<g><path style="opacity:0.008" fill="#170300" d="M 660.5,236.5 C 655.489,236.666 650.489,236.499 645.5,236C 650.684,235.184 655.684,235.35 660.5,236.5 Z"/></g>
<g><path style="opacity:0.01" fill="#000000" d="M 660.5,237.5 C 660.5,237.167 660.5,236.833 660.5,236.5C 666.026,236.179 671.36,236.512 676.5,237.5C 671.167,237.5 665.833,237.5 660.5,237.5 Z"/></g>
<g><path style="opacity:0.01" fill="#000000" d="M 676.5,237.5 C 681.179,237.334 685.845,237.501 690.5,238C 685.648,238.815 680.981,238.648 676.5,237.5 Z"/></g>
<g><path style="opacity:0.009" fill="#110200" d="M 691.5,239.5 C 693.966,238.366 696.633,238.199 699.5,239C 696.854,239.497 694.187,239.664 691.5,239.5 Z"/></g>
<g><path style="opacity:0.01" fill="#000000" d="M 707.5,253.5 C 707.343,252.127 707.51,250.793 708,249.5C 708.765,251.066 708.598,252.399 707.5,253.5 Z"/></g>
<g><path style="opacity:0.008" fill="#000000" d="M 542.5,257.5 C 542.833,257.5 543.167,257.5 543.5,257.5C 543.5,258.167 543.833,258.5 544.5,258.5C 544.328,259.492 544.662,260.158 545.5,260.5C 545.328,261.492 545.662,262.158 546.5,262.5C 546.328,263.492 546.662,264.158 547.5,264.5C 547.328,265.492 547.662,266.158 548.5,266.5C 548.328,267.492 548.662,268.158 549.5,268.5C 549.328,269.492 549.662,270.158 550.5,270.5C 550.527,272.199 551.194,273.533 552.5,274.5C 551.167,274.833 551.167,275.167 552.5,275.5C 552.5,276.5 552.5,277.5 552.5,278.5C 548.93,271.691 545.597,264.691 542.5,257.5 Z"/></g>
<g><path style="opacity:0.01" fill="#000000" d="M 710.5,267.5 C 710.343,266.127 710.51,264.793 711,263.5C 711.765,265.066 711.598,266.399 710.5,267.5 Z"/></g>
<g><path style="opacity:0.009" fill="#000000" d="M 66.5,269.5 C 67.9464,268.387 69.6131,268.22 71.5,269C 69.8659,269.494 68.1992,269.66 66.5,269.5 Z"/></g>
<g><path style="opacity:0.011" fill="#000000" d="M 38.5,274.5 C 39.9464,273.387 41.6131,273.22 43.5,274C 41.8659,274.494 40.1992,274.66 38.5,274.5 Z"/></g>
<g><path style="opacity:0.009" fill="#000000" d="M 717.5,295.5 C 718.167,296.833 718.833,298.167 719.5,299.5C 719.5,301.167 719.5,302.833 719.5,304.5C 719.167,304.5 718.833,304.5 718.5,304.5C 718.768,302.901 718.434,301.568 717.5,300.5C 717.5,298.833 717.5,297.167 717.5,295.5 Z"/></g>
<g><path style="opacity:0.01" fill="#000000" d="M 1.5,300.5 C 2.62914,302.628 2.79581,304.961 2,307.5C 1.50335,305.19 1.33669,302.857 1.5,300.5 Z"/></g>
<g><path style="opacity:0.012" fill="#000000" d="M 717.5,322.5 C 717.833,322.5 718.167,322.5 718.5,322.5C 718.315,323.17 717.981,323.17 717.5,322.5 Z"/></g>
<g><path style="opacity:0.008" fill="#000000" d="M 716.5,323.5 C 716.833,323.5 717.167,323.5 717.5,323.5C 717.315,324.17 716.981,324.17 716.5,323.5 Z"/></g>
<g><path style="opacity:0.006" fill="#000000" d="M 714.5,325.5 C 714.5,325.167 714.5,324.833 714.5,324.5C 715.167,324.5 715.833,324.5 716.5,324.5C 716.158,325.338 715.492,325.672 714.5,325.5 Z"/></g>
<g><path style="opacity:0.012" fill="#000000" d="M 714.5,325.5 C 713.833,326.167 713.833,326.167 714.5,325.5 Z"/></g>
<g><path style="opacity:0.012" fill="#000000" d="M 711.5,326.5 C 712.833,327.167 712.833,327.167 711.5,326.5 Z"/></g>
<g><path style="opacity:0.008" fill="#000000" d="M 708.5,328.5 C 708.5,328.167 708.5,327.833 708.5,327.5C 711.167,327.833 711.167,328.167 708.5,328.5 Z"/></g>
<g><path style="opacity:0.012" fill="#000000" d="M 707.5,328.5 C 707.833,328.5 708.167,328.5 708.5,328.5C 708.315,329.17 707.981,329.17 707.5,328.5 Z"/></g>
<g><path style="opacity:0.012" fill="#000000" d="M 705.5,329.5 C 706.833,330.167 706.833,330.167 705.5,329.5 Z"/></g>
<g><path style="opacity:0.008" fill="#000000" d="M 702.5,331.5 C 702.5,331.167 702.5,330.833 702.5,330.5C 705.167,330.833 705.167,331.167 702.5,331.5 Z"/></g>
<g><path style="opacity:0.012" fill="#000000" d="M 701.5,331.5 C 701.833,331.5 702.167,331.5 702.5,331.5C 702.315,332.17 701.981,332.17 701.5,331.5 Z"/></g>
<g><path style="opacity:0.012" fill="#000000" d="M 699.5,332.5 C 700.833,333.167 700.833,333.167 699.5,332.5 Z"/></g>
<g><path style="opacity:0.012" fill="#000000" d="M 697.5,333.5 C 698.833,334.167 698.833,334.167 697.5,333.5 Z"/></g>
<g><path style="opacity:0.012" fill="#000000" d="M 695.5,334.5 C 696.833,335.167 696.833,335.167 695.5,334.5 Z"/></g>
<g><path style="opacity:0.008" fill="#000000" d="M 693.5,335.5 C 694.167,335.5 694.833,335.5 695.5,335.5C 694.833,336.833 694.167,336.833 693.5,335.5 Z"/></g>
<g><path style="opacity:0.012" fill="#000000" d="M 691.5,336.5 C 692.833,337.167 692.833,337.167 691.5,336.5 Z"/></g>
<g><path style="opacity:0.012" fill="#000000" d="M 689.5,337.5 C 690.833,338.167 690.833,338.167 689.5,337.5 Z"/></g>
<g><path style="opacity:0.008" fill="#000000" d="M 687.5,339.5 C 687.5,339.167 687.5,338.833 687.5,338.5C 688.167,338.5 688.833,338.5 689.5,338.5C 689.158,339.338 688.492,339.672 687.5,339.5 Z"/></g>
<g><path style="opacity:0.008" fill="#000000" d="M 685.5,339.5 C 686.167,339.5 686.833,339.5 687.5,339.5C 686.833,340.833 686.167,340.833 685.5,339.5 Z"/></g>
<g><path style="opacity:0.012" fill="#000000" d="M 683.5,340.5 C 684.833,341.167 684.833,341.167 683.5,340.5 Z"/></g>
<g><path style="opacity:0.008" fill="#000000" d="M 681.5,342.5 C 681.5,342.167 681.5,341.833 681.5,341.5C 682.167,341.5 682.833,341.5 683.5,341.5C 683.158,342.338 682.492,342.672 681.5,342.5 Z"/></g>
<g><path style="opacity:0.008" fill="#000000" d="M 679.5,343.5 C 679.5,343.167 679.5,342.833 679.5,342.5C 680.167,342.5 680.833,342.5 681.5,342.5C 681.158,343.338 680.492,343.672 679.5,343.5 Z"/></g>
<g><path style="opacity:0.008" fill="#000000" d="M 677.5,344.5 C 677.5,344.167 677.5,343.833 677.5,343.5C 678.167,343.5 678.833,343.5 679.5,343.5C 679.158,344.338 678.492,344.672 677.5,344.5 Z"/></g>
<g><path style="opacity:0.008" fill="#000000" d="M 675.5,345.5 C 675.5,345.167 675.5,344.833 675.5,344.5C 676.167,344.5 676.833,344.5 677.5,344.5C 677.158,345.338 676.492,345.672 675.5,345.5 Z"/></g>
<g><path style="opacity:0.008" fill="#000000" d="M 673.5,346.5 C 673.5,346.167 673.5,345.833 673.5,345.5C 674.167,345.5 674.833,345.5 675.5,345.5C 675.158,346.338 674.492,346.672 673.5,346.5 Z"/></g>
<g><path style="opacity:0.008" fill="#000000" d="M 671.5,347.5 C 671.5,347.167 671.5,346.833 671.5,346.5C 672.167,346.5 672.833,346.5 673.5,346.5C 673.158,347.338 672.492,347.672 671.5,347.5 Z"/></g>
<g><path style="opacity:0.008" fill="#000000" d="M 669.5,348.5 C 669.5,348.167 669.5,347.833 669.5,347.5C 670.167,347.5 670.833,347.5 671.5,347.5C 671.158,348.338 670.492,348.672 669.5,348.5 Z"/></g>
<g><path style="opacity:0.008" fill="#000000" d="M 667.5,349.5 C 667.5,349.167 667.5,348.833 667.5,348.5C 668.167,348.5 668.833,348.5 669.5,348.5C 669.158,349.338 668.492,349.672 667.5,349.5 Z"/></g>
<g><path style="opacity:0.008" fill="#000000" d="M 665.5,350.5 C 665.5,350.167 665.5,349.833 665.5,349.5C 666.167,349.5 666.833,349.5 667.5,349.5C 667.158,350.338 666.492,350.672 665.5,350.5 Z"/></g>
<g><path style="opacity:0.008" fill="#000000" d="M 663.5,351.5 C 663.5,351.167 663.5,350.833 663.5,350.5C 664.167,350.5 664.833,350.5 665.5,350.5C 665.158,351.338 664.492,351.672 663.5,351.5 Z"/></g>
<g><path style="opacity:0.008" fill="#000000" d="M 661.5,352.5 C 661.5,352.167 661.5,351.833 661.5,351.5C 662.167,351.5 662.833,351.5 663.5,351.5C 663.158,352.338 662.492,352.672 661.5,352.5 Z"/></g>
<g><path style="opacity:0.008" fill="#000000" d="M 659.5,353.5 C 659.5,353.167 659.5,352.833 659.5,352.5C 660.167,352.5 660.833,352.5 661.5,352.5C 661.158,353.338 660.492,353.672 659.5,353.5 Z"/></g>
<g><path style="opacity:0.008" fill="#000000" d="M 657.5,354.5 C 657.5,354.167 657.5,353.833 657.5,353.5C 658.167,353.5 658.833,353.5 659.5,353.5C 659.158,354.338 658.492,354.672 657.5,354.5 Z"/></g>
<g><path style="opacity:0.008" fill="#000000" d="M 655.5,355.5 C 655.5,355.167 655.5,354.833 655.5,354.5C 656.167,354.5 656.833,354.5 657.5,354.5C 657.158,355.338 656.492,355.672 655.5,355.5 Z"/></g>
<g><path style="opacity:0.008" fill="#000000" d="M 653.5,356.5 C 653.5,356.167 653.5,355.833 653.5,355.5C 654.167,355.5 654.833,355.5 655.5,355.5C 655.158,356.338 654.492,356.672 653.5,356.5 Z"/></g>
<g><path style="opacity:0.01" fill="#000000" d="M 651.5,357.5 C 651.5,357.167 651.5,356.833 651.5,356.5C 652.167,356.5 652.833,356.5 653.5,356.5C 653.158,357.338 652.492,357.672 651.5,357.5 Z"/></g>
<g><path style="opacity:0.012" fill="#000000" d="M 650.5,357.5 C 650.833,357.5 651.167,357.5 651.5,357.5C 651.315,358.17 650.981,358.17 650.5,357.5 Z"/></g>
<g><path style="opacity:0.016" fill="#000000" d="M 649.5,358.5 C 649.833,358.5 650.167,358.5 650.5,358.5C 650.315,359.17 649.981,359.17 649.5,358.5 Z"/></g>
<g><path style="opacity:0.012" fill="#000000" d="M -0.5,359.5 C -0.166667,359.5 0.166667,359.5 0.5,359.5C 0.5,359.833 0.5,360.167 0.5,360.5C 0.166667,360.167 -0.166667,359.833 -0.5,359.5 Z"/></g>
<g><path style="opacity:0.008" fill="#000000" d="M 0.5,360.5 C 1.23891,360.369 1.90558,360.536 2.5,361C 1.56323,361.692 0.896566,361.525 0.5,360.5 Z"/></g>
<g><path style="opacity:0.01" fill="#070100" d="M 647.5,362.5 C 647.833,362.5 648.167,362.5 648.5,362.5C 648.167,379.833 647.833,379.833 647.5,362.5 Z"/></g>
<g><path style="opacity:0.008" fill="#000000" d="M 30.5,370.5 C 30.5,370.833 30.5,371.167 30.5,371.5C 26.5,371.167 26.5,370.833 30.5,370.5 Z"/></g>
<g><path style="opacity:0.012" fill="#000000" d="M 30.5,371.5 C 31.2389,371.369 31.9056,371.536 32.5,372C 31.5632,372.692 30.8966,372.525 30.5,371.5 Z"/></g>
<g><path style="opacity:0.008" fill="#000000" d="M 689.5,426.5 C 690.497,425.287 691.497,425.454 692.5,427C 691.906,427.464 691.239,427.631 690.5,427.5C 689.833,427.5 689.5,427.167 689.5,426.5 Z"/></g>
<g><path style="opacity:0.008" fill="#000000" d="M 167.5,439.5 C 171.07,446.309 174.403,453.309 177.5,460.5C 177.167,460.5 176.833,460.5 176.5,460.5C 176.5,459.833 176.167,459.5 175.5,459.5C 175.672,458.508 175.338,457.842 174.5,457.5C 174.672,456.508 174.338,455.842 173.5,455.5C 173.672,454.508 173.338,453.842 172.5,453.5C 172.672,452.508 172.338,451.842 171.5,451.5C 171.672,450.508 171.338,449.842 170.5,449.5C 170.672,448.508 170.338,447.842 169.5,447.5C 169.672,446.508 169.338,445.842 168.5,445.5C 168.473,443.801 167.806,442.467 166.5,441.5C 167.338,441.158 167.672,440.492 167.5,439.5 Z"/></g>
<g><path style="opacity:0.01" fill="#000000" d="M 709.5,454.5 C 710.833,455.5 710.833,456.5 709.5,457.5C 709.5,456.5 709.5,455.5 709.5,454.5 Z"/></g>
<g><path style="opacity:0.009" fill="#000000" d="M 705.5,465.5 C 705.833,465.5 706.167,465.5 706.5,465.5C 706.737,466.791 706.404,467.791 705.5,468.5C 705.5,467.5 705.5,466.5 705.5,465.5 Z"/></g>
<g><path style="opacity:0.014" fill="#000000" d="M 703.5,471.5 C 703.833,471.5 704.167,471.5 704.5,471.5C 704.672,472.492 704.338,473.158 703.5,473.5C 703.5,472.833 703.5,472.167 703.5,471.5 Z"/></g>
<g><path style="opacity:0.009" fill="#000000" d="M 697.5,487.5 C 697.833,487.5 698.167,487.5 698.5,487.5C 698.737,488.791 698.404,489.791 697.5,490.5C 697.5,489.5 697.5,488.5 697.5,487.5 Z"/></g>
<g><path style="opacity:0.009" fill="#000000" d="M 696.5,490.5 C 696.833,490.5 697.167,490.5 697.5,490.5C 697.737,491.791 697.404,492.791 696.5,493.5C 696.5,492.5 696.5,491.5 696.5,490.5 Z"/></g>
<g><path style="opacity:0.012" fill="#000000" d="M 695.5,493.5 C 695.833,493.5 696.167,493.5 696.5,493.5C 696.672,494.492 696.338,495.158 695.5,495.5C 695.5,494.833 695.5,494.167 695.5,493.5 Z"/></g>
<g><path style="opacity:0.009" fill="#000000" d="M 694.5,495.5 C 694.833,495.5 695.167,495.5 695.5,495.5C 695.737,496.791 695.404,497.791 694.5,498.5C 694.5,497.5 694.5,496.5 694.5,495.5 Z"/></g>
<g><path style="opacity:0.01" fill="#000000" d="M 693.5,498.5 C 693.833,498.5 694.167,498.5 694.5,498.5C 694.737,499.791 694.404,500.791 693.5,501.5C 693.5,500.5 693.5,499.5 693.5,498.5 Z"/></g>
<g><path style="opacity:0.008" fill="#000000" d="M 28.5,500.5 C 29.1667,500.5 29.5,500.833 29.5,501.5C 29.5,501.833 29.5,502.167 29.5,502.5C 30.1667,502.5 30.5,502.833 30.5,503.5C 30.5,503.833 30.5,504.167 30.5,504.5C 31.1667,504.5 31.5,504.833 31.5,505.5C 31.5,505.833 31.5,506.167 31.5,506.5C 32.1667,506.5 32.5,506.833 32.5,507.5C 32.5,507.833 32.5,508.167 32.5,508.5C 33.1667,508.5 33.5,508.833 33.5,509.5C 33.5,509.833 33.5,510.167 33.5,510.5C 34.1667,510.5 34.5,510.833 34.5,511.5C 34.5,511.833 34.5,512.167 34.5,512.5C 35.1667,512.5 35.5,512.833 35.5,513.5C 35.5,513.833 35.5,514.167 35.5,514.5C 36.1667,514.5 36.5,514.833 36.5,515.5C 36.5,515.833 36.5,516.167 36.5,516.5C 37.1667,516.5 37.5,516.833 37.5,517.5C 37.5,517.833 37.5,518.167 37.5,518.5C 38.1667,518.5 38.5,518.833 38.5,519.5C 38.5,519.833 38.5,520.167 38.5,520.5C 38.5,520.833 38.5,521.167 38.5,521.5C 34.3537,515.217 30.687,508.55 27.5,501.5C 27.6236,500.893 27.9569,500.56 28.5,500.5 Z"/></g>
<g><path style="opacity:0.012" fill="#000000" d="M 692.5,501.5 C 692.833,501.5 693.167,501.5 693.5,501.5C 693.672,502.492 693.338,503.158 692.5,503.5C 692.5,502.833 692.5,502.167 692.5,501.5 Z"/></g>
<g><path style="opacity:0.01" fill="#000000" d="M 690.5,506.5 C 690.833,506.5 691.167,506.5 691.5,506.5C 691.737,507.791 691.404,508.791 690.5,509.5C 690.5,508.5 690.5,507.5 690.5,506.5 Z"/></g>
<g><path style="opacity:0.01" fill="#000000" d="M 606.5,512.5 C 606.5,512.167 606.5,511.833 606.5,511.5C 607.833,511.5 609.167,511.5 610.5,511.5C 610.5,511.833 610.5,512.167 610.5,512.5C 609.167,512.5 607.833,512.5 606.5,512.5 Z"/></g>
<g><path style="opacity:0.01" fill="#000000" d="M 603.5,513.5 C 603.5,513.167 603.5,512.833 603.5,512.5C 604.5,512.5 605.5,512.5 606.5,512.5C 605.791,513.404 604.791,513.737 603.5,513.5 Z"/></g>
<g><path style="opacity:0.009" fill="#000000" d="M 610.5,512.5 C 613.518,512.335 616.518,512.502 619.5,513C 616.304,513.805 613.304,513.638 610.5,512.5 Z"/></g>
<g><path style="opacity:0.012" fill="#000000" d="M 601.5,514.5 C 601.5,514.167 601.5,513.833 601.5,513.5C 602.167,513.5 602.833,513.5 603.5,513.5C 603.158,514.338 602.492,514.672 601.5,514.5 Z"/></g>
<g><path style="opacity:0.008" fill="#000000" d="M 686.5,515.5 C 686.833,515.5 687.167,515.5 687.5,515.5C 687.315,516.17 686.981,516.17 686.5,515.5 Z"/></g>
<g><path style="opacity:0.008" fill="#000000" d="M 685.5,516.5 C 685.833,516.5 686.167,516.5 686.5,516.5C 686.315,517.17 685.981,517.17 685.5,516.5 Z"/></g>
<g><path style="opacity:0.008" fill="#000000" d="M 496.5,517.5 C 496.5,517.833 496.5,518.167 496.5,518.5C 495.833,518.5 495.5,518.833 495.5,519.5C 494.833,519.5 494.167,519.5 493.5,519.5C 493.973,518.094 494.973,517.427 496.5,517.5 Z"/></g>
<g><path style="opacity:0.004" fill="#000000" d="M 683.5,518.5 C 683.5,518.167 683.5,517.833 683.5,517.5C 684.167,517.5 684.833,517.5 685.5,517.5C 685.158,518.338 684.492,518.672 683.5,518.5 Z"/></g>
<g><path style="opacity:0.01" fill="#000000" d="M 681.5,519.5 C 681.5,519.167 681.5,518.833 681.5,518.5C 682.167,518.5 682.833,518.5 683.5,518.5C 683.158,519.338 682.492,519.672 681.5,519.5 Z"/></g>
<g><path style="opacity:0.007" fill="#000000" d="M 681.5,519.5 C 679.712,520.622 677.712,520.789 675.5,520C 677.473,519.505 679.473,519.338 681.5,519.5 Z"/></g>
<g><path style="opacity:0.012" fill="#000000" d="M 595.5,521.5 C 595.833,521.5 596.167,521.5 596.5,521.5C 596.315,522.17 595.981,522.17 595.5,521.5 Z"/></g>
<g><path style="opacity:0.012" fill="#000000" d="M 592.5,525.5 C 592.833,525.5 593.167,525.5 593.5,525.5C 593.315,526.17 592.981,526.17 592.5,525.5 Z"/></g>
<g><path style="opacity:0.012" fill="#000000" d="M 584.5,536.5 C 584.833,536.5 585.167,536.5 585.5,536.5C 585.315,537.17 584.981,537.17 584.5,536.5 Z"/></g>
<g><path style="opacity:0.009" fill="#000000" d="M 125.5,542.5 C 125.5,542.167 125.5,541.833 125.5,541.5C 132.167,541.833 132.167,542.167 125.5,542.5 Z"/></g>
<g><path style="opacity:0.01" fill="#000000" d="M 121.5,543.5 C 121.5,543.167 121.5,542.833 121.5,542.5C 122.833,542.5 124.167,542.5 125.5,542.5C 124.432,543.434 123.099,543.768 121.5,543.5 Z"/></g>
<g><path style="opacity:0.009" fill="#000000" d="M 116.5,544.5 C 116.5,544.167 116.5,543.833 116.5,543.5C 118.167,543.5 119.833,543.5 121.5,543.5C 120.081,544.451 118.415,544.784 116.5,544.5 Z"/></g>
<g><path style="opacity:0.011" fill="#000000" d="M 112.5,545.5 C 112.5,545.167 112.5,544.833 112.5,544.5C 113.833,544.5 115.167,544.5 116.5,544.5C 115.432,545.434 114.099,545.768 112.5,545.5 Z"/></g>
<g><path style="opacity:0.009" fill="#000000" d="M 107.5,546.5 C 107.5,546.167 107.5,545.833 107.5,545.5C 109.167,545.5 110.833,545.5 112.5,545.5C 111.081,546.451 109.415,546.784 107.5,546.5 Z"/></g>
<g><path style="opacity:0.011" fill="#000000" d="M 103.5,547.5 C 103.5,547.167 103.5,546.833 103.5,546.5C 104.833,546.5 106.167,546.5 107.5,546.5C 106.432,547.434 105.099,547.768 103.5,547.5 Z"/></g>
<g><path style="opacity:0.009" fill="#000000" d="M 98.5,548.5 C 98.5,548.167 98.5,547.833 98.5,547.5C 100.167,547.5 101.833,547.5 103.5,547.5C 102.081,548.451 100.415,548.784 98.5,548.5 Z"/></g>
<g><path style="opacity:0.011" fill="#000000" d="M 94.5,549.5 C 94.5,549.167 94.5,548.833 94.5,548.5C 95.8333,548.5 97.1667,548.5 98.5,548.5C 97.4324,549.434 96.099,549.768 94.5,549.5 Z"/></g>
<g><path style="opacity:0.01" fill="#000000" d="M 90.5,550.5 C 90.5,550.167 90.5,549.833 90.5,549.5C 91.8333,549.5 93.1667,549.5 94.5,549.5C 93.4324,550.434 92.099,550.768 90.5,550.5 Z"/></g>
<g><path style="opacity:0.009" fill="#000000" d="M 85.5,551.5 C 85.5,551.167 85.5,550.833 85.5,550.5C 87.1667,550.5 88.8333,550.5 90.5,550.5C 89.0813,551.451 87.4147,551.784 85.5,551.5 Z"/></g>
<g><path style="opacity:0.01" fill="#000000" d="M 81.5,552.5 C 81.5,552.167 81.5,551.833 81.5,551.5C 82.8333,551.5 84.1667,551.5 85.5,551.5C 84.4324,552.434 83.099,552.768 81.5,552.5 Z"/></g>
<g><path style="opacity:0.009" fill="#000000" d="M 76.5,553.5 C 76.5,553.167 76.5,552.833 76.5,552.5C 78.1667,552.5 79.8333,552.5 81.5,552.5C 80.0813,553.451 78.4147,553.784 76.5,553.5 Z"/></g>
<g><path style="opacity:0.011" fill="#000000" d="M 72.5,554.5 C 72.5,554.167 72.5,553.833 72.5,553.5C 73.8333,553.5 75.1667,553.5 76.5,553.5C 75.4324,554.434 74.099,554.768 72.5,554.5 Z"/></g>
<g><path style="opacity:0.009" fill="#000000" d="M 67.5,555.5 C 67.5,555.167 67.5,554.833 67.5,554.5C 69.1667,554.5 70.8333,554.5 72.5,554.5C 71.0813,555.451 69.4147,555.784 67.5,555.5 Z"/></g>
<g><path style="opacity:0.01" fill="#000000" d="M 67.5,555.5 C 64.6965,556.638 61.6965,556.805 58.5,556C 61.4816,555.502 64.4816,555.335 67.5,555.5 Z"/></g>
<g><path style="opacity:0.012" fill="#000000" d="M 165.5,593.5 C 165.649,594.552 165.483,595.552 165,596.5C 164.26,595.251 164.427,594.251 165.5,593.5 Z"/></g>
<g><path style="opacity:0.006" fill="#000000" d="M 608.5,620.5 C 608.343,619.127 608.51,617.793 609,616.5C 609.765,618.066 609.598,619.399 608.5,620.5 Z"/></g>
<g><path style="opacity:0.012" fill="#000000" d="M 475.5,621.5 C 475.897,620.475 476.563,620.308 477.5,621C 476.906,621.464 476.239,621.631 475.5,621.5 Z"/></g>
<g><path style="opacity:0.012" fill="#000000" d="M 472.5,622.5 C 472.5,622.167 472.5,621.833 472.5,621.5C 475.167,621.833 475.167,622.167 472.5,622.5 Z"/></g>
<g><path style="opacity:0.008" fill="#000000" d="M 469.5,623.5 C 469.5,623.167 469.5,622.833 469.5,622.5C 470.5,622.5 471.5,622.5 472.5,622.5C 471.791,623.404 470.791,623.737 469.5,623.5 Z"/></g>
<g><path style="opacity:0.012" fill="#000000" d="M 467.5,624.5 C 467.5,624.167 467.5,623.833 467.5,623.5C 468.167,623.5 468.833,623.5 469.5,623.5C 469.158,624.338 468.492,624.672 467.5,624.5 Z"/></g>
<g><path style="opacity:0.009" fill="#000000" d="M 464.5,625.5 C 464.5,625.167 464.5,624.833 464.5,624.5C 465.5,624.5 466.5,624.5 467.5,624.5C 466.791,625.404 465.791,625.737 464.5,625.5 Z"/></g>
<g><path style="opacity:0.012" fill="#000000" d="M 605.5,624.5 C 605.833,624.5 606.167,624.5 606.5,624.5C 606.315,625.17 605.981,625.17 605.5,624.5 Z"/></g>
<g><path style="opacity:0.008" fill="#000000" d="M 461.5,626.5 C 461.5,626.167 461.5,625.833 461.5,625.5C 462.5,625.5 463.5,625.5 464.5,625.5C 463.791,626.404 462.791,626.737 461.5,626.5 Z"/></g>
<g><path style="opacity:0.012" fill="#000000" d="M 604.5,625.5 C 604.833,625.5 605.167,625.5 605.5,625.5C 605.315,626.17 604.981,626.17 604.5,625.5 Z"/></g>
<g><path style="opacity:0.012" fill="#000000" d="M 459.5,627.5 C 459.5,627.167 459.5,626.833 459.5,626.5C 460.167,626.5 460.833,626.5 461.5,626.5C 461.158,627.338 460.492,627.672 459.5,627.5 Z"/></g>
<g><path style="opacity:0.012" fill="#000000" d="M 603.5,626.5 C 603.833,626.5 604.167,626.5 604.5,626.5C 604.315,627.17 603.981,627.17 603.5,626.5 Z"/></g>
<g><path style="opacity:0.009" fill="#000000" d="M 456.5,628.5 C 456.5,628.167 456.5,627.833 456.5,627.5C 457.5,627.5 458.5,627.5 459.5,627.5C 458.791,628.404 457.791,628.737 456.5,628.5 Z"/></g>
<g><path style="opacity:0.016" fill="#000000" d="M 602.5,627.5 C 602.833,627.5 603.167,627.5 603.5,627.5C 603.315,628.17 602.981,628.17 602.5,627.5 Z"/></g>
<g><path style="opacity:0.007" fill="#000000" d="M 453.5,629.5 C 453.5,629.167 453.5,628.833 453.5,628.5C 454.5,628.5 455.5,628.5 456.5,628.5C 455.791,629.404 454.791,629.737 453.5,629.5 Z"/></g>
<g><path style="opacity:0.008" fill="#000000" d="M 601.5,628.5 C 601.833,628.5 602.167,628.5 602.5,628.5C 602.315,629.17 601.981,629.17 601.5,628.5 Z"/></g>
<g><path style="opacity:0.01" fill="#000000" d="M 451.5,630.5 C 451.5,630.167 451.5,629.833 451.5,629.5C 452.167,629.5 452.833,629.5 453.5,629.5C 453.158,630.338 452.492,630.672 451.5,630.5 Z"/></g>
<g><path style="opacity:0.008" fill="#000000" d="M 599.5,630.5 C 599.5,630.167 599.5,629.833 599.5,629.5C 600.167,629.5 600.833,629.5 601.5,629.5C 601.158,630.338 600.492,630.672 599.5,630.5 Z"/></g>
<g><path style="opacity:0.008" fill="#000000" d="M 448.5,631.5 C 448.5,631.167 448.5,630.833 448.5,630.5C 449.5,630.5 450.5,630.5 451.5,630.5C 450.791,631.404 449.791,631.737 448.5,631.5 Z"/></g>
<g><path style="opacity:0.016" fill="#000000" d="M 598.5,630.5 C 598.833,630.5 599.167,630.5 599.5,630.5C 599.315,631.17 598.981,631.17 598.5,630.5 Z"/></g>
<g><path style="opacity:0.012" fill="#000000" d="M 446.5,631.5 C 447.167,631.5 447.833,631.5 448.5,631.5C 447.833,632.833 447.167,632.833 446.5,631.5 Z"/></g>
<g><path style="opacity:0.012" fill="#000000" d="M 597.5,631.5 C 597.833,631.5 598.167,631.5 598.5,631.5C 598.315,632.17 597.981,632.17 597.5,631.5 Z"/></g>
<g><path style="opacity:0.016" fill="#000000" d="M 444.5,632.5 C 445.833,633.167 445.833,633.167 444.5,632.5 Z"/></g>
<g><path style="opacity:0.008" fill="#000000" d="M 595.5,633.5 C 595.5,633.167 595.5,632.833 595.5,632.5C 596.167,632.5 596.833,632.5 597.5,632.5C 597.158,633.338 596.492,633.672 595.5,633.5 Z"/></g>
<g><path style="opacity:0.012" fill="#000000" d="M 282.5,634.5 C 280.143,634.663 277.81,634.497 275.5,634C 278.039,633.204 280.372,633.371 282.5,634.5 Z"/></g>
<g><path style="opacity:0.008" fill="#000000" d="M 443.5,633.5 C 443.833,633.5 444.167,633.5 444.5,633.5C 444.315,634.17 443.981,634.17 443.5,633.5 Z"/></g>
<g><path style="opacity:0.016" fill="#000000" d="M 594.5,633.5 C 594.833,633.5 595.167,633.5 595.5,633.5C 595.315,634.17 594.981,634.17 594.5,633.5 Z"/></g>
<g><path style="opacity:0.014" fill="#000000" d="M 272.5,635.5 C 272.5,635.167 272.5,634.833 272.5,634.5C 275.167,634.833 275.167,635.167 272.5,635.5 Z"/></g>
<g><path style="opacity:0.009" fill="#000000" d="M 282.5,634.5 C 284.167,634.5 285.833,634.5 287.5,634.5C 287.5,634.833 287.5,635.167 287.5,635.5C 285.585,635.784 283.919,635.451 282.5,634.5 Z"/></g>
<g><path style="opacity:0.016" fill="#000000" d="M 442.5,634.5 C 442.833,634.5 443.167,634.5 443.5,634.5C 443.315,635.17 442.981,635.17 442.5,634.5 Z"/></g>
<g><path style="opacity:0.012" fill="#000000" d="M 593.5,634.5 C 593.833,634.5 594.167,634.5 594.5,634.5C 594.315,635.17 593.981,635.17 593.5,634.5 Z"/></g>
<g><path style="opacity:0.016" fill="#000000" d="M 271.5,635.5 C 271.833,635.5 272.167,635.5 272.5,635.5C 272.315,636.17 271.981,636.17 271.5,635.5 Z"/></g>
<g><path style="opacity:0.01" fill="#000000" d="M 287.5,635.5 C 288.873,635.343 290.207,635.51 291.5,636C 289.934,636.765 288.601,636.598 287.5,635.5 Z"/></g>
<g><path style="opacity:0.006" fill="#000000" d="M 591.5,636.5 C 591.5,636.167 591.5,635.833 591.5,635.5C 592.167,635.5 592.833,635.5 593.5,635.5C 593.158,636.338 592.492,636.672 591.5,636.5 Z"/></g>
<g><path style="opacity:0.012" fill="#000000" d="M 270.5,636.5 C 270.833,636.5 271.167,636.5 271.5,636.5C 271.315,637.17 270.981,637.17 270.5,636.5 Z"/></g>
<g><path style="opacity:0.011" fill="#000000" d="M 296.5,636.5 C 296.5,636.833 296.5,637.167 296.5,637.5C 291.167,637.167 291.167,636.833 296.5,636.5 Z"/></g>
<g><path style="opacity:0.016" fill="#000000" d="M 590.5,636.5 C 590.833,636.5 591.167,636.5 591.5,636.5C 591.315,637.17 590.981,637.17 590.5,636.5 Z"/></g>
<g><path style="opacity:0.012" fill="#000000" d="M 269.5,637.5 C 269.833,637.5 270.167,637.5 270.5,637.5C 270.315,638.17 269.981,638.17 269.5,637.5 Z"/></g>
<g><path style="opacity:0.01" fill="#000000" d="M 296.5,637.5 C 297.873,637.343 299.207,637.51 300.5,638C 298.934,638.765 297.601,638.598 296.5,637.5 Z"/></g>
<g><path style="opacity:0.012" fill="#000000" d="M 589.5,637.5 C 589.833,637.5 590.167,637.5 590.5,637.5C 590.315,638.17 589.981,638.17 589.5,637.5 Z"/></g>
<g><path style="opacity:0.012" fill="#000000" d="M 268.5,638.5 C 268.833,638.5 269.167,638.5 269.5,638.5C 269.315,639.17 268.981,639.17 268.5,638.5 Z"/></g>
<g><path style="opacity:0.006" fill="#000000" d="M 587.5,639.5 C 587.5,639.167 587.5,638.833 587.5,638.5C 588.167,638.5 588.833,638.5 589.5,638.5C 589.158,639.338 588.492,639.672 587.5,639.5 Z"/></g>
<g><path style="opacity:0.012" fill="#000000" d="M 267.5,639.5 C 267.833,639.5 268.167,639.5 268.5,639.5C 268.315,640.17 267.981,640.17 267.5,639.5 Z"/></g>
<g><path style="opacity:0.016" fill="#000000" d="M 586.5,639.5 C 586.833,639.5 587.167,639.5 587.5,639.5C 587.315,640.17 586.981,640.17 586.5,639.5 Z"/></g>
<g><path style="opacity:0.012" fill="#000000" d="M 266.5,640.5 C 266.833,640.5 267.167,640.5 267.5,640.5C 267.315,641.17 266.981,641.17 266.5,640.5 Z"/></g>
<g><path style="opacity:0.008" fill="#000000" d="M 512.5,640.5 C 513.167,640.5 513.5,640.833 513.5,641.5C 512.503,642.713 511.503,642.546 510.5,641C 511.094,640.536 511.761,640.369 512.5,640.5 Z"/></g>
<g><path style="opacity:0.012" fill="#000000" d="M 585.5,640.5 C 585.833,640.5 586.167,640.5 586.5,640.5C 586.315,641.17 585.981,641.17 585.5,640.5 Z"/></g>
<g><path style="opacity:0.012" fill="#000000" d="M 265.5,641.5 C 265.833,641.5 266.167,641.5 266.5,641.5C 266.315,642.17 265.981,642.17 265.5,641.5 Z"/></g>
<g><path style="opacity:0.008" fill="#000000" d="M 583.5,642.5 C 583.5,642.167 583.5,641.833 583.5,641.5C 584.167,641.5 584.833,641.5 585.5,641.5C 585.158,642.338 584.492,642.672 583.5,642.5 Z"/></g>
<g><path style="opacity:0.016" fill="#000000" d="M 264.5,642.5 C 264.833,642.5 265.167,642.5 265.5,642.5C 265.315,643.17 264.981,643.17 264.5,642.5 Z"/></g>
<g><path style="opacity:0.012" fill="#000000" d="M 439.5,642.5 C 439.833,642.5 440.167,642.5 440.5,642.5C 440.768,644.099 440.434,645.432 439.5,646.5C 439.5,645.167 439.5,643.833 439.5,642.5 Z"/></g>
<g><path style="opacity:0.016" fill="#000000" d="M 582.5,642.5 C 582.833,642.5 583.167,642.5 583.5,642.5C 583.315,643.17 582.981,643.17 582.5,642.5 Z"/></g>
<g><path style="opacity:0.012" fill="#000000" d="M 263.5,643.5 C 263.833,643.5 264.167,643.5 264.5,643.5C 264.315,644.17 263.981,644.17 263.5,643.5 Z"/></g>
<g><path style="opacity:0.012" fill="#000000" d="M 581.5,643.5 C 581.833,643.5 582.167,643.5 582.5,643.5C 582.315,644.17 581.981,644.17 581.5,643.5 Z"/></g>
<g><path style="opacity:0.016" fill="#000000" d="M 262.5,644.5 C 262.833,644.5 263.167,644.5 263.5,644.5C 263.315,645.17 262.981,645.17 262.5,644.5 Z"/></g>
<g><path style="opacity:0.016" fill="#000000" d="M 261.5,645.5 C 261.833,645.5 262.167,645.5 262.5,645.5C 262.315,646.17 261.981,646.17 261.5,645.5 Z"/></g>
<g><path style="opacity:0.016" fill="#000000" d="M 260.5,646.5 C 260.833,646.5 261.167,646.5 261.5,646.5C 261.315,647.17 260.981,647.17 260.5,646.5 Z"/></g>
<g><path style="opacity:0.009" fill="#000000" d="M 438.5,646.5 C 438.833,646.5 439.167,646.5 439.5,646.5C 439.784,648.415 439.451,650.081 438.5,651.5C 438.5,649.833 438.5,648.167 438.5,646.5 Z"/></g>
<g><path style="opacity:0.012" fill="#000000" d="M 577.5,646.5 C 577.833,646.5 578.167,646.5 578.5,646.5C 578.315,647.17 577.981,647.17 577.5,646.5 Z"/></g>
<g><path style="opacity:0.016" fill="#000000" d="M 259.5,647.5 C 259.833,647.5 260.167,647.5 260.5,647.5C 260.315,648.17 259.981,648.17 259.5,647.5 Z"/></g>
<g><path style="opacity:0.008" fill="#000000" d="M 576.5,647.5 C 576.833,647.5 577.167,647.5 577.5,647.5C 577.315,648.17 576.981,648.17 576.5,647.5 Z"/></g>
<g><path style="opacity:0.016" fill="#000000" d="M 258.5,648.5 C 258.833,648.5 259.167,648.5 259.5,648.5C 259.315,649.17 258.981,649.17 258.5,648.5 Z"/></g>
<g><path style="opacity:0.008" fill="#000000" d="M 574.5,649.5 C 574.5,649.167 574.5,648.833 574.5,648.5C 575.167,648.5 575.833,648.5 576.5,648.5C 576.158,649.338 575.492,649.672 574.5,649.5 Z"/></g>
<g><path style="opacity:0.016" fill="#000000" d="M 257.5,649.5 C 257.833,649.5 258.167,649.5 258.5,649.5C 258.315,650.17 257.981,650.17 257.5,649.5 Z"/></g>
<g><path style="opacity:0.016" fill="#000000" d="M 573.5,649.5 C 573.833,649.5 574.167,649.5 574.5,649.5C 574.315,650.17 573.981,650.17 573.5,649.5 Z"/></g>
<g><path style="opacity:0.016" fill="#000000" d="M 256.5,650.5 C 256.833,650.5 257.167,650.5 257.5,650.5C 257.315,651.17 256.981,651.17 256.5,650.5 Z"/></g>
<g><path style="opacity:0.014" fill="#000000" d="M 324.5,650.5 C 324.631,651.239 324.464,651.906 324,652.5C 323.308,651.563 323.475,650.897 324.5,650.5 Z"/></g>
<g><path style="opacity:0.008" fill="#000000" d="M 572.5,650.5 C 572.833,650.5 573.167,650.5 573.5,650.5C 573.315,651.17 572.981,651.17 572.5,650.5 Z"/></g>
<g><path style="opacity:0.016" fill="#000000" d="M 255.5,651.5 C 255.833,651.5 256.167,651.5 256.5,651.5C 256.315,652.17 255.981,652.17 255.5,651.5 Z"/></g>
<g><path style="opacity:0.009" fill="#000000" d="M 437.5,651.5 C 437.833,651.5 438.167,651.5 438.5,651.5C 438.784,653.415 438.451,655.081 437.5,656.5C 437.5,654.833 437.5,653.167 437.5,651.5 Z"/></g>
<g><path style="opacity:0.008" fill="#000000" d="M 570.5,652.5 C 570.5,652.167 570.5,651.833 570.5,651.5C 571.167,651.5 571.833,651.5 572.5,651.5C 572.158,652.338 571.492,652.672 570.5,652.5 Z"/></g>
<g><path style="opacity:0.016" fill="#000000" d="M 254.5,652.5 C 254.833,652.5 255.167,652.5 255.5,652.5C 255.315,653.17 254.981,653.17 254.5,652.5 Z"/></g>
<g><path style="opacity:0.016" fill="#000000" d="M 569.5,652.5 C 569.833,652.5 570.167,652.5 570.5,652.5C 570.315,653.17 569.981,653.17 569.5,652.5 Z"/></g>
<g><path style="opacity:0.016" fill="#000000" d="M 253.5,653.5 C 253.833,653.5 254.167,653.5 254.5,653.5C 254.315,654.17 253.981,654.17 253.5,653.5 Z"/></g>
<g><path style="opacity:0.012" fill="#000000" d="M 568.5,653.5 C 568.833,653.5 569.167,653.5 569.5,653.5C 569.315,654.17 568.981,654.17 568.5,653.5 Z"/></g>
<g><path style="opacity:0.008" fill="#000000" d="M 153.5,654.5 C 153.833,654.5 154.167,654.5 154.5,654.5C 155.167,654.5 155.5,654.833 155.5,655.5C 154.377,656.757 153.711,656.424 153.5,654.5 Z"/></g>
<g><path style="opacity:0.016" fill="#000000" d="M 252.5,654.5 C 252.833,654.5 253.167,654.5 253.5,654.5C 253.315,655.17 252.981,655.17 252.5,654.5 Z"/></g>
<g><path style="opacity:0.008" fill="#000000" d="M 566.5,655.5 C 566.5,655.167 566.5,654.833 566.5,654.5C 567.167,654.5 567.833,654.5 568.5,654.5C 568.158,655.338 567.492,655.672 566.5,655.5 Z"/></g>
<g><path style="opacity:0.016" fill="#000000" d="M 251.5,655.5 C 251.833,655.5 252.167,655.5 252.5,655.5C 252.315,656.17 251.981,656.17 251.5,655.5 Z"/></g>
<g><path style="opacity:0.016" fill="#000000" d="M 565.5,655.5 C 565.833,655.5 566.167,655.5 566.5,655.5C 566.315,656.17 565.981,656.17 565.5,655.5 Z"/></g>
<g><path style="opacity:0.016" fill="#000000" d="M 250.5,656.5 C 250.833,656.5 251.167,656.5 251.5,656.5C 251.315,657.17 250.981,657.17 250.5,656.5 Z"/></g>
<g><path style="opacity:0.012" fill="#000000" d="M 326.5,656.5 C 326.631,657.239 326.464,657.906 326,658.5C 325.308,657.563 325.475,656.897 326.5,656.5 Z"/></g>
<g><path style="opacity:0.012" fill="#000000" d="M 436.5,656.5 C 436.833,656.5 437.167,656.5 437.5,656.5C 437.167,661.833 436.833,661.833 436.5,656.5 Z"/></g>
<g><path style="opacity:0.012" fill="#000000" d="M 564.5,656.5 C 564.833,656.5 565.167,656.5 565.5,656.5C 565.315,657.17 564.981,657.17 564.5,656.5 Z"/></g>
<g><path style="opacity:0.016" fill="#000000" d="M 249.5,657.5 C 249.833,657.5 250.167,657.5 250.5,657.5C 250.315,658.17 249.981,658.17 249.5,657.5 Z"/></g>
<g><path style="opacity:0.006" fill="#000000" d="M 562.5,658.5 C 562.5,658.167 562.5,657.833 562.5,657.5C 563.167,657.5 563.833,657.5 564.5,657.5C 564.158,658.338 563.492,658.672 562.5,658.5 Z"/></g>
<g><path style="opacity:0.012" fill="#000000" d="M 158.5,658.5 C 157.833,659.167 157.833,659.167 158.5,658.5 Z"/></g>
<g><path style="opacity:0.016" fill="#000000" d="M 248.5,658.5 C 248.833,658.5 249.167,658.5 249.5,658.5C 249.315,659.17 248.981,659.17 248.5,658.5 Z"/></g>
<g><path style="opacity:0.016" fill="#000000" d="M 561.5,658.5 C 561.833,658.5 562.167,658.5 562.5,658.5C 562.315,659.17 561.981,659.17 561.5,658.5 Z"/></g>
<g><path style="opacity:0.016" fill="#000000" d="M 247.5,659.5 C 247.833,659.5 248.167,659.5 248.5,659.5C 248.315,660.17 247.981,660.17 247.5,659.5 Z"/></g>
<g><path style="opacity:0.014" fill="#000000" d="M 327.5,659.5 C 327.631,660.239 327.464,660.906 327,661.5C 326.308,660.563 326.475,659.897 327.5,659.5 Z"/></g>
<g><path style="opacity:0.012" fill="#000000" d="M 560.5,659.5 C 560.833,659.5 561.167,659.5 561.5,659.5C 561.315,660.17 560.981,660.17 560.5,659.5 Z"/></g>
<g><path style="opacity:0.016" fill="#000000" d="M 246.5,660.5 C 246.833,660.5 247.167,660.5 247.5,660.5C 247.315,661.17 246.981,661.17 246.5,660.5 Z"/></g>
<g><path style="opacity:0.008" fill="#000000" d="M 558.5,661.5 C 558.5,661.167 558.5,660.833 558.5,660.5C 559.167,660.5 559.833,660.5 560.5,660.5C 560.158,661.338 559.492,661.672 558.5,661.5 Z"/></g>
<g><path style="opacity:0.016" fill="#000000" d="M 245.5,661.5 C 245.833,661.5 246.167,661.5 246.5,661.5C 246.315,662.17 245.981,662.17 245.5,661.5 Z"/></g>
<g><path style="opacity:0.01" fill="#000000" d="M 435.5,661.5 C 436.833,662.833 436.833,664.167 435.5,665.5C 435.5,664.167 435.5,662.833 435.5,661.5 Z"/></g>
<g><path style="opacity:0.009" fill="#000000" d="M 538.5,661.5 C 539.167,661.5 539.5,661.833 539.5,662.5C 538.503,663.713 537.503,663.546 536.5,662C 537.094,661.536 537.761,661.369 538.5,661.5 Z"/></g>
<g><path style="opacity:0.016" fill="#000000" d="M 557.5,661.5 C 557.833,661.5 558.167,661.5 558.5,661.5C 558.315,662.17 557.981,662.17 557.5,661.5 Z"/></g>
<g><path style="opacity:0.016" fill="#000000" d="M 244.5,662.5 C 244.833,662.5 245.167,662.5 245.5,662.5C 245.315,663.17 244.981,663.17 244.5,662.5 Z"/></g>
<g><path style="opacity:0.012" fill="#000000" d="M 556.5,662.5 C 556.833,662.5 557.167,662.5 557.5,662.5C 557.315,663.17 556.981,663.17 556.5,662.5 Z"/></g>
<g><path style="opacity:0.016" fill="#000000" d="M 243.5,663.5 C 243.833,663.5 244.167,663.5 244.5,663.5C 244.315,664.17 243.981,664.17 243.5,663.5 Z"/></g>
<g><path style="opacity:0.016" fill="#000000" d="M 242.5,664.5 C 242.833,664.5 243.167,664.5 243.5,664.5C 243.315,665.17 242.981,665.17 242.5,664.5 Z"/></g>
<g><path style="opacity:0.016" fill="#000000" d="M 241.5,665.5 C 241.833,665.5 242.167,665.5 242.5,665.5C 242.315,666.17 241.981,666.17 241.5,665.5 Z"/></g>
<g><path style="opacity:0.009" fill="#000000" d="M 434.5,665.5 C 434.833,665.5 435.167,665.5 435.5,665.5C 435.784,667.415 435.451,669.081 434.5,670.5C 434.5,668.833 434.5,667.167 434.5,665.5 Z"/></g>
<g><path style="opacity:0.012" fill="#000000" d="M 552.5,665.5 C 552.833,665.5 553.167,665.5 553.5,665.5C 553.315,666.17 552.981,666.17 552.5,665.5 Z"/></g>
<g><path style="opacity:0.016" fill="#000000" d="M 240.5,666.5 C 240.833,666.5 241.167,666.5 241.5,666.5C 241.315,667.17 240.981,667.17 240.5,666.5 Z"/></g>
<g><path style="opacity:0.016" fill="#000000" d="M 239.5,667.5 C 239.833,667.5 240.167,667.5 240.5,667.5C 240.315,668.17 239.981,668.17 239.5,667.5 Z"/></g>
<g><path style="opacity:0.016" fill="#000000" d="M 238.5,668.5 C 238.833,668.5 239.167,668.5 239.5,668.5C 239.315,669.17 238.981,669.17 238.5,668.5 Z"/></g>
<g><path style="opacity:0.012" fill="#000000" d="M 237.5,669.5 C 237.833,669.5 238.167,669.5 238.5,669.5C 238.5,670.833 237.833,671.5 236.5,671.5C 236.5,671.167 236.5,670.833 236.5,670.5C 237.167,670.5 237.5,670.167 237.5,669.5 Z"/></g>
<g><path style="opacity:0.009" fill="#000000" d="M 433.5,670.5 C 433.833,670.5 434.167,670.5 434.5,670.5C 434.784,672.415 434.451,674.081 433.5,675.5C 433.5,673.833 433.5,672.167 433.5,670.5 Z"/></g>
<g><path style="opacity:0.012" fill="#000000" d="M 181.5,671.5 C 180.833,672.167 180.833,672.167 181.5,671.5 Z"/></g>
<g><path style="opacity:0.007" fill="#000000" d="M 235.5,671.5 C 235.833,671.5 236.167,671.5 236.5,671.5C 232.167,677.833 226.833,683.167 220.5,687.5C 220.5,687.167 220.5,686.833 220.5,686.5C 221.167,686.5 221.5,686.167 221.5,685.5C 222.167,685.5 222.5,685.167 222.5,684.5C 223.167,684.5 223.5,684.167 223.5,683.5C 224.167,683.5 224.5,683.167 224.5,682.5C 225.167,682.5 225.5,682.167 225.5,681.5C 226.167,681.5 226.5,681.167 226.5,680.5C 227.167,680.5 227.5,680.167 227.5,679.5C 228.167,679.5 228.5,679.167 228.5,678.5C 229.167,678.5 229.5,678.167 229.5,677.5C 230.167,677.5 230.5,677.167 230.5,676.5C 231.167,676.5 231.5,676.167 231.5,675.5C 232.167,675.5 232.5,675.167 232.5,674.5C 233.167,674.5 233.5,674.167 233.5,673.5C 234.167,673.5 234.5,673.167 234.5,672.5C 235.167,672.5 235.5,672.167 235.5,671.5 Z"/></g>
<g><path style="opacity:0.006" fill="#000000" d="M 210.5,687.5 C 210.5,687.833 210.5,688.167 210.5,688.5C 207.833,688.167 207.833,687.833 210.5,687.5 Z"/></g>
<g><path style="opacity:0.012" fill="#000000" d="M 219.5,687.5 C 219.833,687.5 220.167,687.5 220.5,687.5C 220.315,688.17 219.981,688.17 219.5,687.5 Z"/></g>
<g><path style="opacity:0.01" fill="#000000" d="M 210.5,688.5 C 211.239,688.369 211.906,688.536 212.5,689C 211.563,689.692 210.897,689.525 210.5,688.5 Z"/></g>
<g><path style="opacity:0.009" fill="#000000" d="M 216.5,689.5 C 216.5,689.167 216.5,688.833 216.5,688.5C 217.5,688.5 218.5,688.5 219.5,688.5C 218.791,689.404 217.791,689.737 216.5,689.5 Z"/></g>
<g><path style="opacity:0.004" fill="#000000" d="M 216.5,689.5 C 215.749,690.573 214.749,690.74 213.5,690C 214.448,689.517 215.448,689.351 216.5,689.5 Z"/></g>
<g><path style="opacity:0.009" fill="#000000" d="M 429.5,689.5 C 429.833,689.5 430.167,689.5 430.5,689.5C 430.784,691.415 430.451,693.081 429.5,694.5C 429.5,692.833 429.5,691.167 429.5,689.5 Z"/></g>
<g><path style="opacity:0.009" fill="#000000" d="M 428.5,694.5 C 428.833,694.5 429.167,694.5 429.5,694.5C 429.784,696.415 429.451,698.081 428.5,699.5C 428.5,697.833 428.5,696.167 428.5,694.5 Z"/></g>
<g><path style="opacity:0.011" fill="#000000" d="M 427.5,699.5 C 427.833,699.5 428.167,699.5 428.5,699.5C 428.167,704.833 427.833,704.833 427.5,699.5 Z"/></g>
<g><path style="opacity:0.011" fill="#000000" d="M 426.5,708.5 C 426.343,707.127 426.51,705.793 427,704.5C 427.765,706.066 427.598,707.399 426.5,708.5 Z"/></g>
<g><path style="opacity:0.012" fill="#000000" d="M 425.5,708.5 C 425.833,708.5 426.167,708.5 426.5,708.5C 426.672,709.492 426.338,710.158 425.5,710.5C 425.5,709.833 425.5,709.167 425.5,708.5 Z"/></g>
<g><path style="opacity:0.004" fill="#000000" d="M 422.5,713.5 C 422.833,713.5 423.167,713.5 423.5,713.5C 423.315,714.17 422.981,714.17 422.5,713.5 Z"/></g>
<g><path style="opacity:0.006" fill="#000000" d="M 420.5,715.5 C 420.5,715.167 420.5,714.833 420.5,714.5C 421.167,714.5 421.833,714.5 422.5,714.5C 422.158,715.338 421.492,715.672 420.5,715.5 Z"/></g>
<g><path style="opacity:0.012" fill="#000000" d="M 419.5,715.5 C 419.833,715.5 420.167,715.5 420.5,715.5C 420.315,716.17 419.981,716.17 419.5,715.5 Z"/></g>
<g><path style="opacity:0.009" fill="#000000" d="M 413.5,717.5 C 413.5,717.167 413.5,716.833 413.5,716.5C 415.5,716.5 417.5,716.5 419.5,716.5C 417.735,717.461 415.735,717.795 413.5,717.5 Z"/></g>
<g><path style="opacity:0.011" fill="#000000" d="M 405.5,718.5 C 405.5,718.167 405.5,717.833 405.5,717.5C 408.167,717.5 410.833,717.5 413.5,717.5C 411.052,718.473 408.385,718.806 405.5,718.5 Z"/></g>
<g><path style="opacity:0.012" fill="#000000" d="M 349.5,718.5 C 349.5,718.833 349.5,719.167 349.5,719.5C 348.83,719.019 348.83,718.685 349.5,718.5 Z"/></g>
<g><path style="opacity:0.01" fill="#000000" d="M 395.5,719.5 C 395.5,719.167 395.5,718.833 395.5,718.5C 398.833,718.5 402.167,718.5 405.5,718.5C 405.5,718.833 405.5,719.167 405.5,719.5C 402.167,719.5 398.833,719.5 395.5,719.5 Z"/></g>
</svg>
